<svg width="1440" height="118" viewBox="0 0 1440 118" fill="none" xmlns="http://www.w3.org/2000/svg">
<rect y="0.14917" width="1440" height="117.851" fill="white"/>
<path d="M687.102 65.0746V52.4746H688.614V65.0746H687.102ZM679.056 65.0746V52.4746H680.568V65.0746H679.056ZM680.28 59.2786V58.0366H687.48V59.2786H680.28ZM695.268 65.2906C694.428 65.2906 693.672 65.0986 693 64.7146C692.328 64.3186 691.794 63.7666 691.398 63.0586C691.014 62.3506 690.822 61.5226 690.822 60.5746C690.822 59.6146 691.02 58.7806 691.416 58.0726C691.812 57.3646 692.346 56.8186 693.018 56.4346C693.702 56.0386 694.464 55.8406 695.304 55.8406C696.156 55.8406 696.918 56.0386 697.59 56.4346C698.262 56.8186 698.79 57.3646 699.174 58.0726C699.558 58.7806 699.75 59.6146 699.75 60.5746C699.75 61.5226 699.552 62.3506 699.156 63.0586C698.772 63.7666 698.238 64.3186 697.554 64.7146C696.882 65.0986 696.12 65.2906 695.268 65.2906ZM695.268 63.9946C695.796 63.9946 696.282 63.8686 696.726 63.6166C697.17 63.3646 697.524 62.9806 697.788 62.4646C698.064 61.9486 698.202 61.3186 698.202 60.5746C698.202 59.8066 698.07 59.1706 697.806 58.6666C697.542 58.1626 697.188 57.7846 696.744 57.5326C696.3 57.2686 695.82 57.1366 695.304 57.1366C694.8 57.1366 694.32 57.2686 693.864 57.5326C693.42 57.7846 693.06 58.1626 692.784 58.6666C692.508 59.1706 692.37 59.8066 692.37 60.5746C692.37 61.3186 692.508 61.9486 692.784 62.4646C693.06 62.9806 693.414 63.3646 693.846 63.6166C694.29 63.8686 694.764 63.9946 695.268 63.9946ZM701.87 65.0746V56.0566H703.238L703.346 57.3526C703.634 56.8846 704.018 56.5186 704.498 56.2546C704.978 55.9786 705.518 55.8406 706.118 55.8406C706.574 55.8406 706.994 55.9066 707.378 56.0386C707.762 56.1586 708.098 56.3506 708.386 56.6146C708.674 56.8666 708.908 57.1906 709.088 57.5866C709.4 57.0346 709.832 56.6086 710.384 56.3086C710.936 55.9966 711.518 55.8406 712.13 55.8406C712.838 55.8406 713.456 55.9846 713.984 56.2726C714.512 56.5486 714.914 56.9746 715.19 57.5506C715.478 58.1266 715.622 58.8526 715.622 59.7286V65.0746H714.128V59.8906C714.128 58.9786 713.942 58.2946 713.57 57.8386C713.198 57.3706 712.67 57.1366 711.986 57.1366C711.506 57.1366 711.08 57.2626 710.708 57.5146C710.336 57.7666 710.042 58.1266 709.826 58.5946C709.61 59.0626 709.502 59.6386 709.502 60.3226V65.0746H707.99V59.8906C707.99 58.9786 707.804 58.2946 707.432 57.8386C707.06 57.3706 706.532 57.1366 705.848 57.1366C705.392 57.1366 704.972 57.2626 704.588 57.5146C704.216 57.7666 703.922 58.1266 703.706 58.5946C703.49 59.0626 703.382 59.6386 703.382 60.3226V65.0746H701.87ZM721.951 65.2906C721.099 65.2906 720.343 65.0986 719.683 64.7146C719.023 64.3186 718.501 63.7666 718.117 63.0586C717.745 62.3386 717.559 61.5106 717.559 60.5746C717.559 59.6146 717.745 58.7866 718.117 58.0906C718.489 57.3826 719.005 56.8306 719.665 56.4346C720.337 56.0386 721.111 55.8406 721.987 55.8406C722.863 55.8406 723.613 56.0386 724.237 56.4346C724.861 56.8306 725.335 57.3466 725.659 57.9826C725.995 58.6186 726.163 59.3146 726.163 60.0706C726.163 60.1906 726.163 60.3226 726.163 60.4666C726.163 60.5986 726.157 60.7486 726.145 60.9166H718.693V59.7466H724.669C724.633 58.9186 724.357 58.2766 723.841 57.8206C723.337 57.3526 722.707 57.1186 721.951 57.1186C721.435 57.1186 720.955 57.2386 720.511 57.4786C720.067 57.7066 719.707 58.0426 719.431 58.4866C719.167 58.9306 719.035 59.4886 719.035 60.1606V60.6646C719.035 61.3966 719.173 62.0146 719.449 62.5186C719.725 63.0226 720.085 63.4006 720.529 63.6526C720.973 63.8926 721.447 64.0126 721.951 64.0126C722.575 64.0126 723.091 63.8746 723.499 63.5986C723.919 63.3106 724.225 62.9206 724.417 62.4286H725.911C725.755 62.9806 725.497 63.4726 725.137 63.9046C724.777 64.3246 724.327 64.6606 723.787 64.9126C723.259 65.1646 722.647 65.2906 721.951 65.2906Z" fill="#5D5A88"/>
<path d="M761.253 65.0746L765.897 52.4746H767.499L772.125 65.0746H770.523L766.689 54.3646L762.837 65.0746H761.253ZM763.377 61.8346L763.809 60.6106H769.515L769.947 61.8346H763.377ZM778.678 65.2906C778.174 65.2906 777.712 65.2186 777.292 65.0746C776.884 64.9306 776.518 64.7326 776.194 64.4806C775.882 64.2286 775.624 63.9286 775.42 63.5806L775.276 65.0746H773.908V52.1146H775.42V57.5506C775.708 57.0946 776.122 56.6986 776.662 56.3626C777.202 56.0146 777.874 55.8406 778.678 55.8406C779.566 55.8406 780.34 56.0506 781 56.4706C781.66 56.8786 782.17 57.4426 782.53 58.1626C782.902 58.8706 783.088 59.6746 783.088 60.5746C783.088 61.4866 782.902 62.2966 782.53 63.0046C782.17 63.7126 781.654 64.2706 780.982 64.6786C780.322 65.0866 779.554 65.2906 778.678 65.2906ZM778.516 63.9766C779.104 63.9766 779.626 63.8386 780.082 63.5626C780.538 63.2746 780.892 62.8786 781.144 62.3746C781.408 61.8586 781.54 61.2586 781.54 60.5746C781.54 59.8906 781.408 59.2966 781.144 58.7926C780.892 58.2766 780.538 57.8746 780.082 57.5866C779.626 57.2986 779.104 57.1546 778.516 57.1546C777.916 57.1546 777.382 57.2986 776.914 57.5866C776.458 57.8746 776.098 58.2766 775.834 58.7926C775.582 59.2966 775.456 59.8906 775.456 60.5746C775.456 61.2586 775.582 61.8586 775.834 62.3746C776.098 62.8786 776.458 63.2746 776.914 63.5626C777.382 63.8386 777.916 63.9766 778.516 63.9766ZM789.262 65.2906C788.422 65.2906 787.666 65.0986 786.994 64.7146C786.322 64.3186 785.788 63.7666 785.392 63.0586C785.008 62.3506 784.816 61.5226 784.816 60.5746C784.816 59.6146 785.014 58.7806 785.41 58.0726C785.806 57.3646 786.34 56.8186 787.012 56.4346C787.696 56.0386 788.458 55.8406 789.298 55.8406C790.15 55.8406 790.912 56.0386 791.584 56.4346C792.256 56.8186 792.784 57.3646 793.168 58.0726C793.552 58.7806 793.744 59.6146 793.744 60.5746C793.744 61.5226 793.546 62.3506 793.15 63.0586C792.766 63.7666 792.232 64.3186 791.548 64.7146C790.876 65.0986 790.114 65.2906 789.262 65.2906ZM789.262 63.9946C789.79 63.9946 790.276 63.8686 790.72 63.6166C791.164 63.3646 791.518 62.9806 791.782 62.4646C792.058 61.9486 792.196 61.3186 792.196 60.5746C792.196 59.8066 792.064 59.1706 791.8 58.6666C791.536 58.1626 791.182 57.7846 790.738 57.5326C790.294 57.2686 789.814 57.1366 789.298 57.1366C788.794 57.1366 788.314 57.2686 787.858 57.5326C787.414 57.7846 787.054 58.1626 786.778 58.6666C786.502 59.1706 786.364 59.8066 786.364 60.5746C786.364 61.3186 786.502 61.9486 786.778 62.4646C787.054 62.9806 787.408 63.3646 787.84 63.6166C788.284 63.8686 788.758 63.9946 789.262 63.9946ZM799.157 65.2906C798.461 65.2906 797.849 65.1526 797.321 64.8766C796.805 64.5886 796.403 64.1566 796.115 63.5806C795.839 63.0046 795.701 62.2786 795.701 61.4026V56.0566H797.213V61.2406C797.213 62.1646 797.405 62.8546 797.789 63.3106C798.185 63.7666 798.749 63.9946 799.481 63.9946C799.997 63.9946 800.453 63.8746 800.849 63.6346C801.257 63.3826 801.575 63.0226 801.803 62.5546C802.043 62.0746 802.163 61.4986 802.163 60.8266V56.0566H803.675V65.0746H802.307L802.217 63.4906C801.941 64.0546 801.533 64.4986 800.993 64.8226C800.453 65.1346 799.841 65.2906 799.157 65.2906ZM809.746 65.0746C809.206 65.0746 808.738 64.9906 808.342 64.8226C807.946 64.6546 807.64 64.3726 807.424 63.9766C807.22 63.5686 807.118 63.0226 807.118 62.3386V57.3346H805.552V56.0566H807.118L807.316 53.8966H808.63V56.0566H811.258V57.3346H808.63V62.3386C808.63 62.9026 808.744 63.2866 808.972 63.4906C809.2 63.6826 809.602 63.7786 810.178 63.7786H811.132V65.0746H809.746Z" fill="#5D5A88"/>
<path d="M847.055 65.0746V52.4746H851.123C852.107 52.4746 852.911 52.6426 853.535 52.9786C854.159 53.3026 854.621 53.7406 854.921 54.2926C855.221 54.8446 855.371 55.4686 855.371 56.1646C855.371 56.8366 855.215 57.4546 854.903 58.0186C854.603 58.5826 854.135 59.0326 853.499 59.3686C852.863 59.7046 852.047 59.8726 851.051 59.8726H848.567V65.0746H847.055ZM853.715 65.0746L850.943 59.4406H852.635L855.497 65.0746H853.715ZM848.567 58.6846H851.015C851.975 58.6846 852.677 58.4506 853.121 57.9826C853.577 57.5146 853.805 56.9146 853.805 56.1826C853.805 55.4386 853.583 54.8506 853.139 54.4186C852.707 53.9746 851.993 53.7526 850.997 53.7526H848.567V58.6846ZM861.122 65.2906C860.27 65.2906 859.514 65.0986 858.854 64.7146C858.194 64.3186 857.672 63.7666 857.288 63.0586C856.916 62.3386 856.73 61.5106 856.73 60.5746C856.73 59.6146 856.916 58.7866 857.288 58.0906C857.66 57.3826 858.176 56.8306 858.836 56.4346C859.508 56.0386 860.282 55.8406 861.158 55.8406C862.034 55.8406 862.784 56.0386 863.408 56.4346C864.032 56.8306 864.506 57.3466 864.83 57.9826C865.166 58.6186 865.334 59.3146 865.334 60.0706C865.334 60.1906 865.334 60.3226 865.334 60.4666C865.334 60.5986 865.328 60.7486 865.316 60.9166H857.864V59.7466H863.84C863.804 58.9186 863.528 58.2766 863.012 57.8206C862.508 57.3526 861.878 57.1186 861.122 57.1186C860.606 57.1186 860.126 57.2386 859.682 57.4786C859.238 57.7066 858.878 58.0426 858.602 58.4866C858.338 58.9306 858.206 59.4886 858.206 60.1606V60.6646C858.206 61.3966 858.344 62.0146 858.62 62.5186C858.896 63.0226 859.256 63.4006 859.7 63.6526C860.144 63.8926 860.618 64.0126 861.122 64.0126C861.746 64.0126 862.262 63.8746 862.67 63.5986C863.09 63.3106 863.396 62.9206 863.588 62.4286H865.082C864.926 62.9806 864.668 63.4726 864.308 63.9046C863.948 64.3246 863.498 64.6606 862.958 64.9126C862.43 65.1646 861.818 65.2906 861.122 65.2906ZM870.776 65.2906C870.044 65.2906 869.396 65.1706 868.832 64.9306C868.28 64.6786 867.836 64.3246 867.5 63.8686C867.164 63.4126 866.954 62.8786 866.87 62.2666H868.418C868.49 62.5906 868.622 62.8846 868.814 63.1486C869.006 63.4126 869.27 63.6226 869.606 63.7786C869.942 63.9346 870.338 64.0126 870.794 64.0126C871.226 64.0126 871.574 63.9526 871.838 63.8326C872.114 63.7006 872.318 63.5326 872.45 63.3286C872.594 63.1126 872.666 62.8786 872.666 62.6266C872.666 62.2546 872.576 61.9726 872.396 61.7806C872.228 61.5886 871.976 61.4386 871.64 61.3306C871.304 61.2226 870.902 61.1266 870.434 61.0426C870.05 60.9706 869.666 60.8746 869.282 60.7546C868.91 60.6226 868.568 60.4666 868.256 60.2866C867.956 60.0946 867.716 59.8546 867.536 59.5666C867.356 59.2786 867.266 58.9246 867.266 58.5046C867.266 57.9886 867.398 57.5326 867.662 57.1366C867.938 56.7286 868.316 56.4106 868.796 56.1826C869.288 55.9546 869.87 55.8406 870.542 55.8406C871.502 55.8406 872.282 56.0746 872.882 56.5426C873.482 57.0106 873.836 57.6886 873.944 58.5766H872.45C872.39 58.1206 872.192 57.7666 871.856 57.5146C871.532 57.2506 871.088 57.1186 870.524 57.1186C869.96 57.1186 869.528 57.2326 869.228 57.4606C868.94 57.6886 868.796 57.9886 868.796 58.3606C868.796 58.6006 868.88 58.8106 869.048 58.9906C869.216 59.1706 869.456 59.3266 869.768 59.4586C870.092 59.5786 870.482 59.6866 870.938 59.7826C871.526 59.8906 872.066 60.0346 872.558 60.2146C873.05 60.3946 873.446 60.6586 873.746 61.0066C874.058 61.3546 874.214 61.8526 874.214 62.5006C874.226 63.0526 874.088 63.5386 873.8 63.9586C873.512 64.3786 873.11 64.7086 872.594 64.9486C872.09 65.1766 871.484 65.2906 870.776 65.2906ZM880.441 65.2906C879.601 65.2906 878.845 65.0986 878.173 64.7146C877.501 64.3186 876.967 63.7666 876.571 63.0586C876.187 62.3506 875.995 61.5226 875.995 60.5746C875.995 59.6146 876.193 58.7806 876.589 58.0726C876.985 57.3646 877.519 56.8186 878.191 56.4346C878.875 56.0386 879.637 55.8406 880.477 55.8406C881.329 55.8406 882.091 56.0386 882.763 56.4346C883.435 56.8186 883.963 57.3646 884.347 58.0726C884.731 58.7806 884.923 59.6146 884.923 60.5746C884.923 61.5226 884.725 62.3506 884.329 63.0586C883.945 63.7666 883.411 64.3186 882.727 64.7146C882.055 65.0986 881.293 65.2906 880.441 65.2906ZM880.441 63.9946C880.969 63.9946 881.455 63.8686 881.899 63.6166C882.343 63.3646 882.697 62.9806 882.961 62.4646C883.237 61.9486 883.375 61.3186 883.375 60.5746C883.375 59.8066 883.243 59.1706 882.979 58.6666C882.715 58.1626 882.361 57.7846 881.917 57.5326C881.473 57.2686 880.993 57.1366 880.477 57.1366C879.973 57.1366 879.493 57.2686 879.037 57.5326C878.593 57.7846 878.233 58.1626 877.957 58.6666C877.681 59.1706 877.543 59.8066 877.543 60.5746C877.543 61.3186 877.681 61.9486 877.957 62.4646C878.233 62.9806 878.587 63.3646 879.019 63.6166C879.463 63.8686 879.937 63.9946 880.441 63.9946ZM890.337 65.2906C889.641 65.2906 889.029 65.1526 888.501 64.8766C887.985 64.5886 887.583 64.1566 887.295 63.5806C887.019 63.0046 886.881 62.2786 886.881 61.4026V56.0566H888.393V61.2406C888.393 62.1646 888.585 62.8546 888.969 63.3106C889.365 63.7666 889.929 63.9946 890.661 63.9946C891.177 63.9946 891.633 63.8746 892.029 63.6346C892.437 63.3826 892.755 63.0226 892.983 62.5546C893.223 62.0746 893.343 61.4986 893.343 60.8266V56.0566H894.855V65.0746H893.487L893.397 63.4906C893.121 64.0546 892.713 64.4986 892.173 64.8226C891.633 65.1346 891.021 65.2906 890.337 65.2906ZM897.361 65.0746V56.0566H898.729L898.855 57.7846C899.047 57.3766 899.299 57.0286 899.611 56.7406C899.935 56.4526 900.319 56.2306 900.763 56.0746C901.207 55.9186 901.711 55.8406 902.275 55.8406V57.4246H901.789C901.393 57.4246 901.015 57.4786 900.655 57.5866C900.307 57.6826 899.995 57.8446 899.719 58.0726C899.455 58.3006 899.245 58.6126 899.089 59.0086C898.945 59.3926 898.873 59.8786 898.873 60.4666V65.0746H897.361ZM907.741 65.2906C906.889 65.2906 906.121 65.0926 905.437 64.6966C904.765 64.3006 904.231 63.7486 903.835 63.0406C903.451 62.3326 903.259 61.5106 903.259 60.5746C903.259 59.6266 903.451 58.7986 903.835 58.0906C904.231 57.3826 904.765 56.8306 905.437 56.4346C906.121 56.0386 906.889 55.8406 907.741 55.8406C908.821 55.8406 909.715 56.1226 910.423 56.6866C911.143 57.2386 911.605 57.9826 911.809 58.9186H910.261C910.129 58.3546 909.829 57.9166 909.361 57.6046C908.893 57.2926 908.347 57.1366 907.723 57.1366C907.219 57.1366 906.745 57.2686 906.301 57.5326C905.857 57.7846 905.497 58.1686 905.221 58.6846C904.945 59.1886 904.807 59.8186 904.807 60.5746C904.807 61.1266 904.885 61.6186 905.041 62.0506C905.209 62.4826 905.425 62.8486 905.689 63.1486C905.965 63.4366 906.277 63.6526 906.625 63.7966C906.985 63.9406 907.351 64.0126 907.723 64.0126C908.143 64.0126 908.527 63.9466 908.875 63.8146C909.223 63.6706 909.517 63.4666 909.757 63.2026C910.009 62.9266 910.177 62.6026 910.261 62.2306H911.809C911.617 63.1426 911.155 63.8806 910.423 64.4446C909.703 65.0086 908.809 65.2906 907.741 65.2906ZM917.934 65.2906C917.082 65.2906 916.326 65.0986 915.666 64.7146C915.006 64.3186 914.484 63.7666 914.1 63.0586C913.728 62.3386 913.542 61.5106 913.542 60.5746C913.542 59.6146 913.728 58.7866 914.1 58.0906C914.472 57.3826 914.988 56.8306 915.648 56.4346C916.32 56.0386 917.094 55.8406 917.97 55.8406C918.846 55.8406 919.596 56.0386 920.22 56.4346C920.844 56.8306 921.318 57.3466 921.642 57.9826C921.978 58.6186 922.146 59.3146 922.146 60.0706C922.146 60.1906 922.146 60.3226 922.146 60.4666C922.146 60.5986 922.14 60.7486 922.128 60.9166H914.676V59.7466H920.652C920.616 58.9186 920.34 58.2766 919.824 57.8206C919.32 57.3526 918.69 57.1186 917.934 57.1186C917.418 57.1186 916.938 57.2386 916.494 57.4786C916.05 57.7066 915.69 58.0426 915.414 58.4866C915.15 58.9306 915.018 59.4886 915.018 60.1606V60.6646C915.018 61.3966 915.156 62.0146 915.432 62.5186C915.708 63.0226 916.068 63.4006 916.512 63.6526C916.956 63.8926 917.43 64.0126 917.934 64.0126C918.558 64.0126 919.074 63.8746 919.482 63.5986C919.902 63.3106 920.208 62.9206 920.4 62.4286H921.894C921.738 62.9806 921.48 63.4726 921.12 63.9046C920.76 64.3246 920.31 64.6606 919.77 64.9126C919.242 65.1646 918.63 65.2906 917.934 65.2906ZM927.588 65.2906C926.856 65.2906 926.208 65.1706 925.644 64.9306C925.092 64.6786 924.648 64.3246 924.312 63.8686C923.976 63.4126 923.766 62.8786 923.682 62.2666H925.23C925.302 62.5906 925.434 62.8846 925.626 63.1486C925.818 63.4126 926.082 63.6226 926.418 63.7786C926.754 63.9346 927.15 64.0126 927.606 64.0126C928.038 64.0126 928.386 63.9526 928.65 63.8326C928.926 63.7006 929.13 63.5326 929.262 63.3286C929.406 63.1126 929.478 62.8786 929.478 62.6266C929.478 62.2546 929.388 61.9726 929.208 61.7806C929.04 61.5886 928.788 61.4386 928.452 61.3306C928.116 61.2226 927.714 61.1266 927.246 61.0426C926.862 60.9706 926.478 60.8746 926.094 60.7546C925.722 60.6226 925.38 60.4666 925.068 60.2866C924.768 60.0946 924.528 59.8546 924.348 59.5666C924.168 59.2786 924.078 58.9246 924.078 58.5046C924.078 57.9886 924.21 57.5326 924.474 57.1366C924.75 56.7286 925.128 56.4106 925.608 56.1826C926.1 55.9546 926.682 55.8406 927.354 55.8406C928.314 55.8406 929.094 56.0746 929.694 56.5426C930.294 57.0106 930.648 57.6886 930.756 58.5766H929.262C929.202 58.1206 929.004 57.7666 928.668 57.5146C928.344 57.2506 927.9 57.1186 927.336 57.1186C926.772 57.1186 926.34 57.2326 926.04 57.4606C925.752 57.6886 925.608 57.9886 925.608 58.3606C925.608 58.6006 925.692 58.8106 925.86 58.9906C926.028 59.1706 926.268 59.3266 926.58 59.4586C926.904 59.5786 927.294 59.6866 927.75 59.7826C928.338 59.8906 928.878 60.0346 929.37 60.2146C929.862 60.3946 930.258 60.6586 930.558 61.0066C930.87 61.3546 931.026 61.8526 931.026 62.5006C931.038 63.0526 930.9 63.5386 930.612 63.9586C930.324 64.3786 929.922 64.7086 929.406 64.9486C928.902 65.1766 928.296 65.2906 927.588 65.2906Z" fill="#5D5A88"/>
<path d="M942.333 56.1579L948.167 61.9912L954 56.1579" stroke="#211F54" stroke-width="1.4" stroke-linecap="round" stroke-linejoin="round"/>
<path d="M993.967 65.2906C992.731 65.2906 991.663 65.0206 990.763 64.4806C989.875 63.9286 989.185 63.1666 988.693 62.1946C988.213 61.2106 987.973 60.0706 987.973 58.7746C987.973 57.4786 988.213 56.3446 988.693 55.3726C989.185 54.3886 989.875 53.6266 990.763 53.0866C991.663 52.5346 992.731 52.2586 993.967 52.2586C995.407 52.2586 996.577 52.6006 997.477 53.2846C998.377 53.9686 998.953 54.9346 999.205 56.1826H997.531C997.339 55.4026 996.949 54.7786 996.361 54.3106C995.773 53.8306 994.975 53.5906 993.967 53.5906C993.067 53.5906 992.281 53.8006 991.609 54.2206C990.949 54.6286 990.433 55.2226 990.061 56.0026C989.701 56.7706 989.521 57.6946 989.521 58.7746C989.521 59.8546 989.701 60.7846 990.061 61.5646C990.433 62.3326 990.949 62.9266 991.609 63.3466C992.281 63.7546 993.067 63.9586 993.967 63.9586C994.975 63.9586 995.773 63.7306 996.361 63.2746C996.949 62.8066 997.339 62.1886 997.531 61.4206H999.205C998.953 62.6326 998.377 63.5806 997.477 64.2646C996.577 64.9486 995.407 65.2906 993.967 65.2906ZM1005.36 65.2906C1004.52 65.2906 1003.76 65.0986 1003.09 64.7146C1002.42 64.3186 1001.88 63.7666 1001.49 63.0586C1001.1 62.3506 1000.91 61.5226 1000.91 60.5746C1000.91 59.6146 1001.11 58.7806 1001.5 58.0726C1001.9 57.3646 1002.43 56.8186 1003.11 56.4346C1003.79 56.0386 1004.55 55.8406 1005.39 55.8406C1006.24 55.8406 1007.01 56.0386 1007.68 56.4346C1008.35 56.8186 1008.88 57.3646 1009.26 58.0726C1009.65 58.7806 1009.84 59.6146 1009.84 60.5746C1009.84 61.5226 1009.64 62.3506 1009.24 63.0586C1008.86 63.7666 1008.33 64.3186 1007.64 64.7146C1006.97 65.0986 1006.21 65.2906 1005.36 65.2906ZM1005.36 63.9946C1005.88 63.9946 1006.37 63.8686 1006.81 63.6166C1007.26 63.3646 1007.61 62.9806 1007.88 62.4646C1008.15 61.9486 1008.29 61.3186 1008.29 60.5746C1008.29 59.8066 1008.16 59.1706 1007.89 58.6666C1007.63 58.1626 1007.28 57.7846 1006.83 57.5326C1006.39 57.2686 1005.91 57.1366 1005.39 57.1366C1004.89 57.1366 1004.41 57.2686 1003.95 57.5326C1003.51 57.7846 1003.15 58.1626 1002.87 58.6666C1002.6 59.1706 1002.46 59.8066 1002.46 60.5746C1002.46 61.3186 1002.6 61.9486 1002.87 62.4646C1003.15 62.9806 1003.5 63.3646 1003.93 63.6166C1004.38 63.8686 1004.85 63.9946 1005.36 63.9946ZM1011.96 65.0746V56.0566H1013.33L1013.42 57.6586C1013.7 57.0946 1014.12 56.6506 1014.66 56.3266C1015.2 56.0026 1015.81 55.8406 1016.49 55.8406C1017.19 55.8406 1017.8 55.9846 1018.31 56.2726C1018.83 56.5486 1019.23 56.9746 1019.52 57.5506C1019.81 58.1266 1019.95 58.8526 1019.95 59.7286V65.0746H1018.44V59.8906C1018.44 58.9786 1018.24 58.2946 1017.84 57.8386C1017.45 57.3706 1016.88 57.1366 1016.15 57.1366C1015.64 57.1366 1015.17 57.2626 1014.77 57.5146C1014.37 57.7666 1014.05 58.1266 1013.81 58.5946C1013.58 59.0626 1013.47 59.6386 1013.47 60.3226V65.0746H1011.96ZM1025.84 65.0746C1025.3 65.0746 1024.83 64.9906 1024.44 64.8226C1024.04 64.6546 1023.74 64.3726 1023.52 63.9766C1023.32 63.5686 1023.21 63.0226 1023.21 62.3386V57.3346H1021.65V56.0566H1023.21L1023.41 53.8966H1024.73V56.0566H1027.35V57.3346H1024.73V62.3386C1024.73 62.9026 1024.84 63.2866 1025.07 63.4906C1025.3 63.6826 1025.7 63.7786 1026.27 63.7786H1027.23V65.0746H1025.84ZM1032.26 65.2906C1031.52 65.2906 1030.9 65.1646 1030.41 64.9126C1029.93 64.6606 1029.57 64.3246 1029.33 63.9046C1029.09 63.4726 1028.97 63.0046 1028.97 62.5006C1028.97 61.8886 1029.12 61.3726 1029.43 60.9526C1029.76 60.5326 1030.21 60.2146 1030.78 59.9986C1031.37 59.7706 1032.06 59.6566 1032.84 59.6566H1035.25C1035.25 59.0926 1035.16 58.6246 1034.98 58.2526C1034.81 57.8806 1034.56 57.5986 1034.22 57.4066C1033.89 57.2146 1033.48 57.1186 1033 57.1186C1032.42 57.1186 1031.92 57.2686 1031.49 57.5686C1031.07 57.8566 1030.81 58.2766 1030.71 58.8286H1029.16C1029.24 58.1926 1029.45 57.6526 1029.81 57.2086C1030.18 56.7646 1030.65 56.4286 1031.22 56.2006C1031.78 55.9606 1032.37 55.8406 1033 55.8406C1033.83 55.8406 1034.52 55.9966 1035.07 56.3086C1035.63 56.6086 1036.05 57.0346 1036.33 57.5866C1036.62 58.1266 1036.76 58.7686 1036.76 59.5126V65.0746H1035.41L1035.32 63.4726C1035.2 63.7246 1035.04 63.9646 1034.85 64.1926C1034.67 64.4086 1034.46 64.6006 1034.2 64.7686C1033.96 64.9246 1033.68 65.0506 1033.36 65.1466C1033.03 65.2426 1032.67 65.2906 1032.26 65.2906ZM1032.49 64.0126C1032.93 64.0126 1033.31 63.9286 1033.65 63.7606C1033.98 63.5806 1034.27 63.3406 1034.51 63.0406C1034.76 62.7406 1034.95 62.4046 1035.07 62.0326C1035.19 61.6486 1035.25 61.2586 1035.25 60.8626V60.8266H1032.96C1032.39 60.8266 1031.92 60.8986 1031.56 61.0426C1031.2 61.1746 1030.94 61.3606 1030.78 61.6006C1030.63 61.8406 1030.55 62.1166 1030.55 62.4286C1030.55 62.7526 1030.62 63.0346 1030.77 63.2746C1030.92 63.5146 1031.14 63.7006 1031.43 63.8326C1031.72 63.9526 1032.07 64.0126 1032.49 64.0126ZM1043.17 65.2906C1042.32 65.2906 1041.55 65.0926 1040.86 64.6966C1040.19 64.3006 1039.66 63.7486 1039.26 63.0406C1038.88 62.3326 1038.69 61.5106 1038.69 60.5746C1038.69 59.6266 1038.88 58.7986 1039.26 58.0906C1039.66 57.3826 1040.19 56.8306 1040.86 56.4346C1041.55 56.0386 1042.32 55.8406 1043.17 55.8406C1044.25 55.8406 1045.14 56.1226 1045.85 56.6866C1046.57 57.2386 1047.03 57.9826 1047.24 58.9186H1045.69C1045.56 58.3546 1045.26 57.9166 1044.79 57.6046C1044.32 57.2926 1043.77 57.1366 1043.15 57.1366C1042.65 57.1366 1042.17 57.2686 1041.73 57.5326C1041.28 57.7846 1040.92 58.1686 1040.65 58.6846C1040.37 59.1886 1040.23 59.8186 1040.23 60.5746C1040.23 61.1266 1040.31 61.6186 1040.47 62.0506C1040.64 62.4826 1040.85 62.8486 1041.12 63.1486C1041.39 63.4366 1041.7 63.6526 1042.05 63.7966C1042.41 63.9406 1042.78 64.0126 1043.15 64.0126C1043.57 64.0126 1043.95 63.9466 1044.3 63.8146C1044.65 63.6706 1044.94 63.4666 1045.18 63.2026C1045.44 62.9266 1045.6 62.6026 1045.69 62.2306H1047.24C1047.04 63.1426 1046.58 63.8806 1045.85 64.4446C1045.13 65.0086 1044.24 65.2906 1043.17 65.2906ZM1052.67 65.0746C1052.13 65.0746 1051.66 64.9906 1051.26 64.8226C1050.87 64.6546 1050.56 64.3726 1050.34 63.9766C1050.14 63.5686 1050.04 63.0226 1050.04 62.3386V57.3346H1048.47V56.0566H1050.04L1050.24 53.8966H1051.55V56.0566H1054.18V57.3346H1051.55V62.3386C1051.55 62.9026 1051.66 63.2866 1051.89 63.4906C1052.12 63.6826 1052.52 63.7786 1053.1 63.7786H1054.05V65.0746H1052.67Z" fill="#5D5A88"/>
<rect x="1079.5" y="32.5746" width="87" height="53" rx="26.5" fill="white"/>
<rect x="1079.5" y="32.5746" width="87" height="53" rx="26.5" stroke="#D4D2E3"/>
<path d="M1104.64 64.0746V52.8746H1105.98V63.0026H1111.2V64.0746H1104.64ZM1116.24 64.2666C1115.49 64.2666 1114.82 64.0959 1114.22 63.7546C1113.62 63.4026 1113.15 62.9119 1112.8 62.2826C1112.45 61.6533 1112.28 60.9119 1112.28 60.0586C1112.28 59.2053 1112.46 58.4639 1112.81 57.8346C1113.16 57.2053 1113.64 56.7199 1114.24 56.3786C1114.84 56.0266 1115.52 55.8506 1116.27 55.8506C1117.02 55.8506 1117.7 56.0266 1118.3 56.3786C1118.9 56.7199 1119.37 57.2053 1119.71 57.8346C1120.05 58.4639 1120.22 59.2053 1120.22 60.0586C1120.22 60.9119 1120.04 61.6533 1119.69 62.2826C1119.35 62.9119 1118.88 63.4026 1118.27 63.7546C1117.67 64.0959 1116.99 64.2666 1116.24 64.2666ZM1116.24 63.1146C1116.7 63.1146 1117.14 63.0026 1117.53 62.7786C1117.93 62.5439 1118.24 62.2026 1118.48 61.7546C1118.72 61.2959 1118.84 60.7306 1118.84 60.0586C1118.84 59.3759 1118.73 58.8106 1118.49 58.3626C1118.26 57.9146 1117.94 57.5786 1117.55 57.3546C1117.15 57.1199 1116.73 57.0026 1116.27 57.0026C1115.82 57.0026 1115.39 57.1199 1114.99 57.3546C1114.59 57.5786 1114.27 57.9146 1114.03 58.3626C1113.78 58.8106 1113.66 59.3759 1113.66 60.0586C1113.66 60.7306 1113.78 61.2959 1114.03 61.7546C1114.27 62.2026 1114.59 62.5439 1114.97 62.7786C1115.37 63.0026 1115.79 63.1146 1116.24 63.1146ZM1124.94 67.7866C1124.22 67.7866 1123.58 67.6906 1123.02 67.4986C1122.47 67.3173 1122.04 67.0346 1121.73 66.6506C1121.42 66.2666 1121.26 65.7919 1121.26 65.2266C1121.26 64.9813 1121.31 64.7199 1121.41 64.4426C1121.51 64.1759 1121.69 63.9093 1121.94 63.6426C1122.19 63.3759 1122.55 63.1359 1123.01 62.9226L1123.92 63.4666C1123.37 63.7013 1123 63.9679 1122.83 64.2666C1122.66 64.5653 1122.58 64.8426 1122.58 65.0986C1122.58 65.4506 1122.68 65.7439 1122.88 65.9786C1123.08 66.2133 1123.36 66.3893 1123.71 66.5066C1124.07 66.6239 1124.49 66.6826 1124.94 66.6826C1125.4 66.6826 1125.8 66.6133 1126.13 66.4746C1126.46 66.3466 1126.71 66.1653 1126.9 65.9306C1127.08 65.7066 1127.17 65.4346 1127.17 65.1146C1127.17 64.7519 1127.03 64.4426 1126.75 64.1866C1126.47 63.9413 1125.95 63.7973 1125.18 63.7546C1124.54 63.7119 1124.01 63.6533 1123.58 63.5786C1123.17 63.5039 1122.82 63.4186 1122.54 63.3226C1122.27 63.2159 1122.03 63.0986 1121.84 62.9706C1121.66 62.8426 1121.49 62.7093 1121.34 62.5706V62.2026L1122.9 60.6506L1124.06 61.0666L1122.46 62.5226L1122.67 61.9626C1122.79 62.0479 1122.9 62.1279 1123.01 62.2026C1123.11 62.2666 1123.26 62.3253 1123.44 62.3786C1123.62 62.4319 1123.87 62.4853 1124.19 62.5386C1124.51 62.5813 1124.94 62.6239 1125.49 62.6666C1126.21 62.7199 1126.79 62.8479 1127.23 63.0506C1127.68 63.2533 1128 63.5253 1128.19 63.8666C1128.39 64.2079 1128.5 64.6079 1128.5 65.0666C1128.5 65.5253 1128.37 65.9573 1128.11 66.3626C1127.87 66.7786 1127.48 67.1199 1126.96 67.3866C1126.44 67.6533 1125.77 67.7866 1124.94 67.7866ZM1124.93 61.5466C1124.26 61.5466 1123.69 61.4239 1123.22 61.1786C1122.75 60.9226 1122.39 60.5813 1122.14 60.1546C1121.9 59.7173 1121.78 59.2319 1121.78 58.6986C1121.78 58.1653 1121.9 57.6853 1122.14 57.2586C1122.39 56.8319 1122.75 56.4906 1123.22 56.2346C1123.69 55.9786 1124.26 55.8506 1124.93 55.8506C1125.61 55.8506 1126.19 55.9786 1126.66 56.2346C1127.13 56.4906 1127.48 56.8319 1127.73 57.2586C1127.97 57.6853 1128.1 58.1653 1128.1 58.6986C1128.1 59.2319 1127.97 59.7173 1127.73 60.1546C1127.48 60.5813 1127.13 60.9226 1126.66 61.1786C1126.19 61.4239 1125.61 61.5466 1124.93 61.5466ZM1124.93 60.4426C1125.5 60.4426 1125.96 60.2986 1126.29 60.0106C1126.63 59.7119 1126.8 59.2746 1126.8 58.6986C1126.8 58.1439 1126.63 57.7173 1126.29 57.4186C1125.96 57.1199 1125.5 56.9706 1124.93 56.9706C1124.36 56.9706 1123.91 57.1199 1123.57 57.4186C1123.23 57.7173 1123.06 58.1439 1123.06 58.6986C1123.06 59.2746 1123.23 59.7119 1123.57 60.0106C1123.91 60.2986 1124.36 60.4426 1124.93 60.4426ZM1126.24 57.1786L1125.84 56.0426H1129.14V57.0506L1126.24 57.1786ZM1130.81 64.0746V56.0426H1132.15V64.0746H1130.81ZM1131.48 54.3146C1131.22 54.3146 1130.99 54.2293 1130.81 54.0586C1130.64 53.8773 1130.55 53.6533 1130.55 53.3866C1130.55 53.1199 1130.64 52.9066 1130.81 52.7466C1130.99 52.5759 1131.22 52.4906 1131.48 52.4906C1131.74 52.4906 1131.96 52.5759 1132.14 52.7466C1132.32 52.9066 1132.41 53.1199 1132.41 53.3866C1132.41 53.6533 1132.32 53.8773 1132.14 54.0586C1131.96 54.2293 1131.74 54.3146 1131.48 54.3146ZM1134.49 64.0746V56.0426H1135.71L1135.79 57.4506C1136.05 56.9493 1136.41 56.5599 1136.88 56.2826C1137.36 55.9946 1137.9 55.8506 1138.51 55.8506C1139.14 55.8506 1139.68 55.9733 1140.14 56.2186C1140.6 56.4639 1140.96 56.8426 1141.21 57.3546C1141.47 57.8666 1141.6 58.5119 1141.6 59.2906V64.0746H1140.25V59.4346C1140.25 58.6239 1140.08 58.0159 1139.73 57.6106C1139.37 57.2053 1138.87 57.0026 1138.21 57.0026C1137.76 57.0026 1137.35 57.1146 1136.99 57.3386C1136.64 57.5519 1136.36 57.8666 1136.14 58.2826C1135.94 58.6986 1135.84 59.2053 1135.84 59.8026V64.0746H1134.49Z" fill="#5D5A88"/>
<rect x="1191" y="32.0746" width="139" height="54" rx="27" fill="#5D5A88"/>
<path d="M1221.29 64.2666C1220.23 64.2666 1219.31 64.0319 1218.52 63.5626C1217.73 63.0826 1217.11 62.4159 1216.67 61.5626C1216.23 60.6986 1216.01 59.6959 1216.01 58.5546C1216.01 57.4026 1216.23 56.3893 1216.68 55.5146C1217.14 54.6293 1217.79 53.9359 1218.63 53.4346C1219.48 52.9333 1220.48 52.6826 1221.64 52.6826C1222.96 52.6826 1224.06 52.9973 1224.92 53.6266C1225.8 54.2559 1226.36 55.1306 1226.62 56.2506H1224.2C1224.04 55.7599 1223.74 55.3759 1223.31 55.0986C1222.88 54.8106 1222.32 54.6666 1221.64 54.6666C1220.91 54.6666 1220.28 54.8266 1219.77 55.1466C1219.27 55.4666 1218.88 55.9146 1218.62 56.4906C1218.35 57.0666 1218.22 57.7546 1218.22 58.5546C1218.22 59.3653 1218.35 60.0533 1218.62 60.6186C1218.88 61.1839 1219.26 61.6159 1219.75 61.9146C1220.25 62.2026 1220.84 62.3466 1221.51 62.3466C1222.49 62.3466 1223.24 62.0853 1223.74 61.5626C1224.25 61.0293 1224.55 60.3413 1224.65 59.4986H1221.9V57.8826H1226.83V64.0746H1224.83L1224.67 62.6506C1224.42 63.0026 1224.14 63.3013 1223.83 63.5466C1223.52 63.7813 1223.16 63.9573 1222.75 64.0746C1222.33 64.2026 1221.84 64.2666 1221.29 64.2666ZM1232.65 64.2666C1231.84 64.2666 1231.12 64.0959 1230.49 63.7546C1229.88 63.4026 1229.39 62.9173 1229.04 62.2986C1228.7 61.6693 1228.53 60.9493 1228.53 60.1386C1228.53 59.2959 1228.7 58.5546 1229.04 57.9146C1229.38 57.2746 1229.86 56.7733 1230.48 56.4106C1231.11 56.0373 1231.83 55.8506 1232.65 55.8506C1233.45 55.8506 1234.15 56.0266 1234.75 56.3786C1235.35 56.7199 1235.81 57.1893 1236.14 57.7866C1236.48 58.3839 1236.65 59.0613 1236.65 59.8186C1236.65 59.9253 1236.65 60.0479 1236.64 60.1866C1236.64 60.3146 1236.63 60.4479 1236.62 60.5866H1230.06V59.2586H1234.46C1234.44 58.7573 1234.26 58.3573 1233.92 58.0586C1233.58 57.7493 1233.16 57.5946 1232.67 57.5946C1232.3 57.5946 1231.96 57.6799 1231.65 57.8506C1231.34 58.0213 1231.09 58.2773 1230.91 58.6186C1230.74 58.9493 1230.65 59.3706 1230.65 59.8826V60.3466C1230.65 60.7839 1230.73 61.1679 1230.89 61.4986C1231.07 61.8186 1231.3 62.0693 1231.6 62.2506C1231.9 62.4213 1232.24 62.5066 1232.64 62.5066C1233.03 62.5066 1233.36 62.4213 1233.61 62.2506C1233.88 62.0799 1234.08 61.8559 1234.22 61.5786H1236.41C1236.27 62.0906 1236.01 62.5493 1235.66 62.9546C1235.31 63.3599 1234.88 63.6799 1234.37 63.9146C1233.85 64.1493 1233.28 64.2666 1232.65 64.2666ZM1241.91 64.0746C1241.36 64.0746 1240.87 63.9893 1240.44 63.8186C1240.02 63.6373 1239.68 63.3439 1239.45 62.9386C1239.22 62.5226 1239.1 61.9573 1239.1 61.2426V57.8506H1237.72V56.0426H1239.1L1239.35 53.8506H1241.26V56.0426H1243.39V57.8506H1241.26V61.2746C1241.26 61.6373 1241.34 61.8879 1241.5 62.0266C1241.66 62.1653 1241.93 62.2346 1242.31 62.2346H1243.35V64.0746H1241.91ZM1252.25 64.2666C1251.51 64.2666 1250.87 64.1493 1250.33 63.9146C1249.8 63.6799 1249.37 63.3599 1249.05 62.9546C1248.74 62.5386 1248.57 62.0639 1248.52 61.5306H1250.67C1250.72 61.7333 1250.81 61.9199 1250.94 62.0906C1251.07 62.2506 1251.24 62.3786 1251.45 62.4746C1251.67 62.5706 1251.93 62.6186 1252.22 62.6186C1252.51 62.6186 1252.74 62.5813 1252.92 62.5066C1253.1 62.4213 1253.24 62.3146 1253.32 62.1866C1253.42 62.0479 1253.47 61.9039 1253.47 61.7546C1253.47 61.5199 1253.4 61.3439 1253.27 61.2266C1253.15 61.1093 1252.95 61.0133 1252.7 60.9386C1252.45 60.8639 1252.16 60.7893 1251.82 60.7146C1251.45 60.6399 1251.07 60.5493 1250.7 60.4426C1250.34 60.3253 1250.01 60.1813 1249.71 60.0106C1249.42 59.8399 1249.19 59.6213 1249.02 59.3546C1248.85 59.0879 1248.76 58.7573 1248.76 58.3626C1248.76 57.8933 1248.89 57.4666 1249.15 57.0826C1249.4 56.6986 1249.78 56.3999 1250.27 56.1866C1250.76 55.9626 1251.34 55.8506 1252.03 55.8506C1253 55.8506 1253.77 56.0693 1254.33 56.5066C1254.91 56.9439 1255.24 57.5466 1255.34 58.3146H1253.31C1253.25 58.0586 1253.11 57.8613 1252.89 57.7226C1252.67 57.5839 1252.38 57.5146 1252.03 57.5146C1251.64 57.5146 1251.35 57.5839 1251.15 57.7226C1250.95 57.8613 1250.86 58.0373 1250.86 58.2506C1250.86 58.3999 1250.92 58.5333 1251.05 58.6506C1251.18 58.7679 1251.37 58.8693 1251.61 58.9546C1251.86 59.0293 1252.15 59.1039 1252.51 59.1786C1253.13 59.3066 1253.66 59.4506 1254.12 59.6106C1254.59 59.7706 1254.96 60.0053 1255.23 60.3146C1255.49 60.6133 1255.63 61.0506 1255.63 61.6266C1255.64 62.1386 1255.5 62.5973 1255.23 63.0026C1254.95 63.3973 1254.55 63.7066 1254.04 63.9306C1253.54 64.1546 1252.94 64.2666 1252.25 64.2666ZM1260.82 64.0746C1260.27 64.0746 1259.78 63.9893 1259.35 63.8186C1258.92 63.6373 1258.59 63.3439 1258.36 62.9386C1258.12 62.5226 1258 61.9573 1258 61.2426V57.8506H1256.63V56.0426H1258L1258.26 53.8506H1260.16V56.0426H1262.29V57.8506H1260.16V61.2746C1260.16 61.6373 1260.24 61.8879 1260.4 62.0266C1260.56 62.1653 1260.84 62.2346 1261.22 62.2346H1262.26V64.0746H1260.82ZM1266.82 64.2666C1266.14 64.2666 1265.59 64.1599 1265.15 63.9466C1264.71 63.7226 1264.39 63.4293 1264.18 63.0666C1263.96 62.6933 1263.86 62.2879 1263.86 61.8506C1263.86 61.3493 1263.98 60.9173 1264.22 60.5546C1264.48 60.1813 1264.86 59.8879 1265.38 59.6746C1265.89 59.4613 1266.53 59.3546 1267.3 59.3546H1269.3C1269.3 58.9599 1269.24 58.6346 1269.14 58.3786C1269.03 58.1226 1268.86 57.9306 1268.64 57.8026C1268.42 57.6746 1268.12 57.6106 1267.74 57.6106C1267.34 57.6106 1266.99 57.7013 1266.7 57.8826C1266.43 58.0533 1266.25 58.3199 1266.18 58.6826H1264.08C1264.14 58.1066 1264.34 57.6106 1264.66 57.1946C1264.99 56.7679 1265.42 56.4373 1265.95 56.2026C1266.48 55.9679 1267.09 55.8506 1267.76 55.8506C1268.52 55.8506 1269.17 55.9786 1269.73 56.2346C1270.28 56.4799 1270.71 56.8479 1271.01 57.3386C1271.31 57.8186 1271.46 58.4053 1271.46 59.0986V64.0746H1269.63L1269.39 62.8426C1269.27 63.0559 1269.14 63.2479 1268.98 63.4186C1268.82 63.5893 1268.63 63.7386 1268.42 63.8666C1268.2 63.9946 1267.96 64.0906 1267.7 64.1546C1267.43 64.2293 1267.14 64.2666 1266.82 64.2666ZM1267.33 62.6026C1267.6 62.6026 1267.85 62.5546 1268.06 62.4586C1268.29 62.3519 1268.48 62.2133 1268.64 62.0426C1268.8 61.8613 1268.92 61.6586 1269.01 61.4346C1269.1 61.1999 1269.17 60.9546 1269.2 60.6986V60.6826H1267.55C1267.22 60.6826 1266.95 60.7253 1266.74 60.8106C1266.53 60.8853 1266.38 60.9973 1266.29 61.1466C1266.19 61.2959 1266.14 61.4666 1266.14 61.6586C1266.14 61.8613 1266.19 62.0319 1266.29 62.1706C1266.38 62.3093 1266.52 62.4159 1266.7 62.4906C1266.88 62.5653 1267.09 62.6026 1267.33 62.6026ZM1273.45 64.0746V56.0426H1275.37L1275.57 57.5306C1275.77 57.1786 1276.01 56.8799 1276.3 56.6346C1276.59 56.3786 1276.92 56.1866 1277.29 56.0586C1277.68 55.9199 1278.1 55.8506 1278.56 55.8506V58.1386H1277.84C1277.52 58.1386 1277.22 58.1759 1276.94 58.2506C1276.68 58.3146 1276.44 58.4319 1276.24 58.6026C1276.04 58.7733 1275.88 59.0026 1275.77 59.2906C1275.67 59.5786 1275.61 59.9413 1275.61 60.3786V64.0746H1273.45ZM1283.59 64.0746C1283.03 64.0746 1282.54 63.9893 1282.11 63.8186C1281.69 63.6373 1281.36 63.3439 1281.12 62.9386C1280.89 62.5226 1280.77 61.9573 1280.77 61.2426V57.8506H1279.39V56.0426H1280.77L1281.03 53.8506H1282.93V56.0426H1285.06V57.8506H1282.93V61.2746C1282.93 61.6373 1283.01 61.8879 1283.17 62.0266C1283.33 62.1653 1283.6 62.2346 1283.99 62.2346H1285.03V64.0746H1283.59ZM1290.53 64.2666C1289.72 64.2666 1289 64.0959 1288.37 63.7546C1287.75 63.4026 1287.27 62.9173 1286.91 62.2986C1286.57 61.6693 1286.4 60.9493 1286.4 60.1386C1286.4 59.2959 1286.57 58.5546 1286.91 57.9146C1287.25 57.2746 1287.73 56.7733 1288.35 56.4106C1288.98 56.0373 1289.71 55.8506 1290.53 55.8506C1291.33 55.8506 1292.03 56.0266 1292.63 56.3786C1293.22 56.7199 1293.69 57.1893 1294.02 57.7866C1294.36 58.3839 1294.53 59.0613 1294.53 59.8186C1294.53 59.9253 1294.52 60.0479 1294.51 60.1866C1294.51 60.3146 1294.51 60.4479 1294.5 60.5866H1287.94V59.2586H1292.34C1292.32 58.7573 1292.13 58.3573 1291.79 58.0586C1291.45 57.7493 1291.04 57.5946 1290.55 57.5946C1290.17 57.5946 1289.83 57.6799 1289.52 57.8506C1289.21 58.0213 1288.97 58.2773 1288.79 58.6186C1288.61 58.9493 1288.53 59.3706 1288.53 59.8826V60.3466C1288.53 60.7839 1288.61 61.1679 1288.77 61.4986C1288.94 61.8186 1289.17 62.0693 1289.47 62.2506C1289.77 62.4213 1290.12 62.5066 1290.51 62.5066C1290.91 62.5066 1291.23 62.4213 1291.49 62.2506C1291.76 62.0799 1291.96 61.8559 1292.1 61.5786H1294.29C1294.14 62.0906 1293.89 62.5493 1293.54 62.9546C1293.19 63.3599 1292.75 63.6799 1292.24 63.9146C1291.73 64.1493 1291.16 64.2666 1290.53 64.2666ZM1299.87 64.2666C1299.14 64.2666 1298.49 64.0853 1297.9 63.7226C1297.31 63.3599 1296.85 62.8639 1296.52 62.2346C1296.19 61.5946 1296.03 60.8693 1296.03 60.0586C1296.03 59.2479 1296.19 58.5279 1296.52 57.8986C1296.86 57.2586 1297.33 56.7573 1297.91 56.3946C1298.51 56.0319 1299.18 55.8506 1299.91 55.8506C1300.5 55.8506 1301.01 55.9573 1301.43 56.1706C1301.87 56.3839 1302.22 56.6879 1302.49 57.0826V52.5546H1304.65V64.0746H1302.73L1302.49 62.9706C1302.33 63.1946 1302.13 63.4079 1301.88 63.6106C1301.65 63.8133 1301.37 63.9733 1301.03 64.0906C1300.7 64.2079 1300.31 64.2666 1299.87 64.2666ZM1300.38 62.3786C1300.81 62.3786 1301.18 62.2826 1301.5 62.0906C1301.83 61.8879 1302.09 61.6106 1302.27 61.2586C1302.46 60.9066 1302.55 60.5066 1302.55 60.0586C1302.55 59.5999 1302.46 59.1946 1302.27 58.8426C1302.09 58.4906 1301.83 58.2186 1301.5 58.0266C1301.18 57.8346 1300.81 57.7386 1300.38 57.7386C1299.97 57.7386 1299.61 57.8346 1299.27 58.0266C1298.94 58.2186 1298.68 58.4906 1298.49 58.8426C1298.31 59.1946 1298.22 59.5946 1298.22 60.0426C1298.22 60.5013 1298.31 60.9066 1298.49 61.2586C1298.68 61.6106 1298.94 61.8879 1299.27 62.0906C1299.61 62.2826 1299.97 62.3786 1300.38 62.3786Z" fill="white"/>
<path d="M136.421 63.4754L125.94 53.7526C118.526 46.8755 106 51.7369 106 61.4597V74.1468H166.841V35.2556L136.421 63.4754Z" fill="#070F21"/>
<path d="M136.421 20.6714L146.902 30.3942C154.315 37.2713 166.841 32.4099 166.841 22.6871V10H106V48.8912L136.421 20.6714Z" fill="#070F21"/>
<path d="M82.518 111.486V96.0857H88.568C89.6387 96.0857 90.5407 96.2544 91.274 96.5917C92.0073 96.9291 92.5573 97.3984 92.924 97.9997C93.2907 98.5864 93.474 99.2684 93.474 100.046C93.474 100.823 93.3053 101.476 92.968 102.004C92.6307 102.532 92.1833 102.935 91.626 103.214C91.0687 103.492 90.4747 103.661 89.844 103.72L90.174 103.478C90.8633 103.492 91.4793 103.676 92.022 104.028C92.5793 104.38 93.0193 104.842 93.342 105.414C93.6647 105.971 93.826 106.594 93.826 107.284C93.826 108.09 93.628 108.816 93.232 109.462C92.8507 110.092 92.286 110.591 91.538 110.958C90.79 111.31 89.8733 111.486 88.788 111.486H82.518ZM85.158 109.33H88.392C89.2573 109.33 89.932 109.124 90.416 108.714C90.9 108.303 91.142 107.731 91.142 106.998C91.142 106.264 90.8927 105.685 90.394 105.26C89.8953 104.82 89.2133 104.6 88.348 104.6H85.158V109.33ZM85.158 102.598H88.194C89.03 102.598 89.668 102.407 90.108 102.026C90.5627 101.63 90.79 101.087 90.79 100.398C90.79 99.7231 90.5627 99.1951 90.108 98.8137C89.668 98.4177 89.0153 98.2197 88.15 98.2197H85.158V102.598ZM96.2895 111.486V96.0857H98.9295V111.486H96.2895ZM101.983 111.486V96.0857H104.623V109.418H111.509V111.486H101.983ZM114.014 111.486V96.0857H116.654V109.418H123.54V111.486H114.014ZM126.045 111.486V96.0857H128.685V111.486H126.045ZM138.889 111.75C137.378 111.75 136.043 111.42 134.885 110.76C133.741 110.085 132.846 109.154 132.201 107.966C131.555 106.763 131.233 105.37 131.233 103.786C131.233 102.216 131.555 100.838 132.201 99.6497C132.846 98.4471 133.741 97.5084 134.885 96.8337C136.043 96.1591 137.378 95.8217 138.889 95.8217C140.414 95.8217 141.749 96.1591 142.893 96.8337C144.051 97.5084 144.953 98.4471 145.599 99.6497C146.244 100.838 146.567 102.216 146.567 103.786C146.567 105.37 146.244 106.763 145.599 107.966C144.953 109.154 144.051 110.085 142.893 110.76C141.749 111.42 140.414 111.75 138.889 111.75ZM138.889 109.374C139.886 109.374 140.759 109.154 141.507 108.714C142.255 108.259 142.834 107.614 143.245 106.778C143.655 105.942 143.861 104.944 143.861 103.786C143.861 102.627 143.655 101.63 143.245 100.794C142.834 99.9577 142.255 99.3197 141.507 98.8797C140.759 98.4251 139.886 98.1977 138.889 98.1977C137.891 98.1977 137.019 98.4251 136.271 98.8797C135.523 99.3197 134.943 99.9577 134.533 100.794C134.122 101.63 133.917 102.627 133.917 103.786C133.917 104.944 134.122 105.942 134.533 106.778C134.943 107.614 135.523 108.259 136.271 108.714C137.019 109.154 137.891 109.374 138.889 109.374ZM149.077 111.486V96.0857H151.717L159.131 107.218V96.0857H161.771V111.486H159.131L151.717 100.376V111.486H149.077ZM164.979 106.184V103.984H174.087V106.184H164.979ZM176.516 111.486L181.334 103.698L176.472 96.0857H179.508L183.028 101.608L186.262 96.0857H189.232L184.458 103.808L189.342 111.486H186.306L182.764 105.898L179.508 111.486H176.516Z" fill="black"/>
</svg>
