<svg width="69" height="69" viewBox="0 0 69 69" fill="none" xmlns="http://www.w3.org/2000/svg">
<path d="M51.9326 26.2689L56.3498 30.7539H63.5918V38.1052L68.0146 42.5902V26.2689H51.9326ZM5.68131 27.37L0.0146484 41.63H3.72348L4.77181 38.8067H11.0646L12.2206 41.63H16.0116L9.73865 27.37H5.68131ZM17.6068 27.37V41.6156H21.1145V32.7261L24.9055 37.2169H25.4381L29.2291 32.7434V41.63H32.7368V27.37H29.6796L25.169 32.6744L20.6611 27.37H17.6068ZM35.4086 27.37V41.63H41.2368C46.844 41.63 49.3968 38.6227 49.3968 34.523C49.3968 30.613 46.742 27.37 41.6136 27.37H35.4086ZM38.9135 29.9862H41.1575C44.4725 29.9862 45.7758 32.0304 45.7758 34.5C45.7758 36.593 44.7218 39.0195 41.1971 39.0195H38.9135V29.9862ZM7.78931 30.7711L10.0305 36.3256H5.70398L7.78931 30.7711ZM56.3441 31.6537L51.7995 36.2624V42.7311H58.1631L62.7078 38.111H56.3441V31.6537Z" fill="#767494"/>
</svg>
