<svg width="93" height="29" viewBox="0 0 93 29" fill="none" xmlns="http://www.w3.org/2000/svg">
<path d="M3.10938 26.268V5.50917L5.85645 5.50359V15.798L16.165 5.48263L19.8892 5.47506L11.1807 13.9039L20.2715 26.2331L16.6465 26.2404L9.25488 15.7486L5.85645 19.069V26.2624L3.10938 26.268ZM22.5654 26.2284V5.46962L29.7163 5.45508C31.3306 5.4518 32.5625 5.54841 33.4121 5.74493C34.6016 6.01627 35.6164 6.50982 36.4565 7.22556C37.5516 8.14846 38.3682 9.33153 38.9062 10.7748C39.4538 12.2086 39.7275 13.8506 39.7275 15.7008C39.7275 17.2773 39.5435 18.6748 39.1753 19.8934C38.8071 21.1119 38.3351 22.1229 37.7593 22.9265C37.1834 23.7207 36.5509 24.3497 35.8618 24.8137C35.1821 25.2682 34.3561 25.6144 33.3838 25.8524C32.4209 26.0904 31.3117 26.2106 30.0562 26.2132L22.5654 26.2284ZM25.3125 23.7731L29.7446 23.7641C31.1134 23.7613 32.1849 23.6317 32.959 23.3752C33.7425 23.1188 34.3656 22.7588 34.8281 22.2953C35.4795 21.6426 35.9845 20.7683 36.3433 19.6726C36.7114 18.5673 36.8955 17.2312 36.8955 15.6641C36.8955 13.4929 36.5368 11.8274 35.8193 10.6678C35.1113 9.49864 34.2476 8.71686 33.228 8.32245C32.4917 8.04074 31.307 7.90155 29.6738 7.90487L25.3125 7.91374V23.7731ZM43.4092 26.186V5.42724L51.1973 5.41141C52.7832 5.40818 54.0529 5.618 55.0063 6.04087C55.9692 6.45428 56.7197 7.0994 57.2578 7.97624C57.8053 8.84361 58.0791 9.75403 58.0791 10.7075C58.0791 11.5948 57.8384 12.4308 57.3569 13.2153C56.8755 13.9998 56.1486 14.6338 55.1763 15.1172C56.4318 15.4828 57.3947 16.1086 58.0649 16.9946C58.7446 17.8806 59.0845 18.9278 59.0845 20.1361C59.0845 21.1084 58.8768 22.0151 58.4614 22.8561C58.0555 23.6877 57.5505 24.3306 56.9463 24.785C56.3421 25.2393 55.5822 25.5854 54.6665 25.8233C53.7603 26.0517 52.6463 26.1673 51.3247 26.1699L43.4092 26.186ZM46.1562 14.1443L50.645 14.1352C51.8628 14.1327 52.736 14.0507 53.2646 13.8891C53.9632 13.68 54.4871 13.3344 54.8364 12.8523C55.1951 12.3701 55.3745 11.7655 55.3745 11.0387C55.3745 10.3495 55.2093 9.7457 54.8789 9.22717C54.5485 8.69919 54.0765 8.34143 53.4629 8.15387C52.8493 7.95688 51.7967 7.8599 50.3052 7.86293L46.1562 7.87136V14.1443ZM46.1562 23.7307L51.3247 23.7202C52.2121 23.7184 52.8351 23.6841 53.1938 23.6173C53.8263 23.5027 54.355 23.3129 54.7798 23.0477C55.2046 22.7825 55.5539 22.3995 55.8276 21.8986C56.1014 21.3883 56.2383 20.8027 56.2383 20.1419C56.2383 19.3678 56.04 18.6979 55.6436 18.1323C55.2471 17.5573 54.6948 17.1572 53.9868 16.9321C53.2882 16.6975 52.2782 16.5816 50.9565 16.5843L46.1562 16.594V23.7307ZM67.8921 22.7803V17.0879L62.2422 17.0994V14.7205L67.8921 14.709V9.05911L70.2993 9.05421V14.7041L75.9492 14.6926V17.0715L70.2993 17.083V22.7754L67.8921 22.7803Z" fill="#767494"/>
<path d="M3.10938 26.268L2.60938 26.269V26.769L3.10938 26.768V26.268ZM3.10938 5.50917V5.00917L2.60938 5.01019V5.51019L3.10938 5.50917ZM5.85645 5.50359L6.35645 5.50257V5.00257L5.85645 5.00359V5.50359ZM5.85645 15.798L5.35645 15.799V17.005L6.20976 16.1511L5.85645 15.798ZM16.165 5.48263V4.98263L15.9581 4.98305L15.8117 5.12955L16.165 5.48263ZM19.8892 5.47506L20.2365 5.83399L21.1266 4.97254L19.8892 4.97506V5.47506ZM11.1807 13.9039L10.8333 13.545L10.5187 13.8495L10.778 14.2012L11.1807 13.9039ZM20.2715 26.2331V26.7331L21.2605 26.7311L20.6741 25.9358L20.2715 26.2331ZM16.6465 26.2404L16.2375 26.529L16.3869 26.741L16.6465 26.7404V26.2404ZM9.25488 15.7486L9.66382 15.4601L9.3261 14.9807L8.90583 15.3913L9.25488 15.7486ZM5.85645 19.069L5.5074 18.7117L5.35645 18.8592V19.07L5.85645 19.069ZM5.85645 26.2624V26.7624L6.35645 26.7614V26.2614L5.85645 26.2624ZM3.60938 26.2669V5.50815L2.60938 5.51019V26.269L3.60938 26.2669ZM3.10938 6.00917L5.85645 6.00359V5.00359L3.10938 5.00917V6.00917ZM5.35645 5.5046V15.799L6.35645 15.797V5.50257L5.35645 5.5046ZM6.20976 16.1511L16.5183 5.83571L15.8117 5.12955L5.50314 15.4449L6.20976 16.1511ZM16.165 5.98263L19.8892 5.97506V4.97506L16.165 4.98263V5.98263ZM19.5418 5.11612L10.8333 13.545L11.528 14.2628L20.2365 5.83399L19.5418 5.11612ZM10.778 14.2012L19.8688 26.5303L20.6741 25.9358L11.5833 13.6066L10.778 14.2012ZM20.2715 25.7331L16.6465 25.7404V26.7404L20.2715 26.7331V25.7331ZM17.0554 25.9519L9.66382 15.4601L8.84594 16.0372L16.2375 26.529L17.0554 25.9519ZM8.90583 15.3913L5.5074 18.7117L6.2055 19.4263L9.60393 16.1059L8.90583 15.3913ZM5.35645 19.07V26.2634L6.35645 26.2614V19.068L5.35645 19.07ZM5.85645 25.7624L3.10938 25.768V26.768L5.85645 26.7624V25.7624ZM22.5654 26.2284L22.0654 26.2294V26.7294L22.5654 26.7284V26.2284ZM22.5654 5.46962V4.96962L22.0654 4.97063V5.47063L22.5654 5.46962ZM33.4121 5.74493L33.2985 6.23208L33.3 6.23242L33.4121 5.74493ZM36.4565 7.22556L36.1318 7.60645L36.1339 7.60815L36.4565 7.22556ZM38.9062 10.7748L38.4377 10.9503L38.4391 10.954L38.9062 10.7748ZM37.7593 22.9265L38.1639 23.2195L38.1655 23.2172L37.7593 22.9265ZM35.8618 24.8137L36.1392 25.2291L36.1405 25.2283L35.8618 24.8137ZM33.3838 25.8524L33.2659 25.3668L33.2648 25.367L33.3838 25.8524ZM25.3125 23.7731L24.8125 23.7741V24.2741L25.3125 24.2731V23.7731ZM32.959 23.3752L32.8043 22.9001L32.8026 22.9006L32.959 23.3752ZM34.8281 22.2953L34.4746 21.9424L34.8281 22.2953ZM36.3433 19.6726L35.8689 19.5154L35.8681 19.5179L36.3433 19.6726ZM35.8193 10.6678L35.3915 10.9274L35.394 10.9315L35.8193 10.6678ZM33.228 8.32245L33.4093 7.85608L33.4075 7.85541L33.228 8.32245ZM25.3125 7.91374V7.41374L24.8125 7.41476V7.91476L25.3125 7.91374ZM23.0654 26.2274V5.4686L22.0654 5.47063V26.2294L23.0654 26.2274ZM22.5654 5.96962L29.7163 5.95508V4.95508L22.5654 4.96962V5.96962ZM29.7163 5.95508C31.3188 5.95182 32.5052 6.04859 33.2985 6.23208L33.5257 5.25778C32.6198 5.04823 31.3423 4.95177 29.7163 4.95508V5.95508ZM33.3 6.23242C34.4193 6.48778 35.3591 6.94813 36.1319 7.60645L36.7812 6.84466C35.8737 6.0715 34.7838 5.54477 33.5243 5.25744L33.3 6.23242ZM36.1339 7.60815C37.1584 8.47161 37.9273 9.58125 38.4377 10.9503L39.3748 10.5993C38.809 9.08181 37.9448 7.82531 36.7792 6.84296L36.1339 7.60815ZM38.4391 10.954C38.961 12.3206 39.2275 13.9004 39.2275 15.7019L40.2275 15.6998C40.2275 13.8008 39.9466 12.0966 39.3734 10.5956L38.4391 10.954ZM39.2275 15.7019C39.2275 17.2405 39.0477 18.5877 38.6967 19.7496L39.6539 20.0371C40.0392 18.762 40.2275 17.3141 40.2275 15.6998L39.2275 15.7019ZM38.6967 19.7496C38.3401 20.9299 37.8892 21.8877 37.3531 22.6358L38.1655 23.2172C38.7811 22.3582 39.2742 21.2939 39.6539 20.0371L38.6967 19.7496ZM37.3547 22.6335C36.8073 23.3885 36.2156 23.9733 35.5832 24.3991L36.1405 25.2283C36.8863 24.7261 37.5596 24.0528 38.1639 23.2195L37.3547 22.6335ZM35.5845 24.3982C34.963 24.8138 34.1937 25.1397 33.2659 25.3668L33.5017 26.3381C34.5185 26.0892 35.4013 25.7226 36.1392 25.2291L35.5845 24.3982ZM33.2648 25.367C32.3495 25.5932 31.2817 25.7107 30.0562 25.7132V26.7132C31.3417 26.7106 32.4923 26.5875 33.5028 26.3378L33.2648 25.367ZM30.0562 25.7132L22.5654 25.7284V26.7284L30.0562 26.7132V25.7132ZM25.3125 24.2731L29.7446 24.2641V23.2641L25.3125 23.2731V24.2731ZM29.7446 24.2641C31.1356 24.2613 32.268 24.1306 33.1154 23.8498L32.8026 22.9006C32.1017 23.1328 31.0912 23.2614 29.7446 23.2641V24.2641ZM33.1137 23.8504C33.9532 23.5756 34.6508 23.1801 35.1817 22.6481L34.4746 21.9424C34.0803 22.3375 33.5318 22.6619 32.8043 22.9001L33.1137 23.8504ZM35.1817 22.6481C35.9007 21.9276 36.4412 20.9794 36.8184 19.8273L35.8681 19.5179C35.5278 20.5573 35.0583 21.3576 34.4746 21.9424L35.1817 22.6481ZM36.8176 19.8297C37.2075 18.6592 37.3955 17.2665 37.3955 15.6631L36.3955 15.6651C36.3955 17.1958 36.2154 18.4754 35.8689 19.5154L36.8176 19.8297ZM37.3955 15.6631C37.3955 13.4489 37.0318 11.6764 36.2447 10.4041L35.394 10.9315C36.0418 11.9785 36.3955 13.5369 36.3955 15.6651L37.3955 15.6631ZM36.2472 10.4081C35.4966 9.16877 34.5551 8.29934 33.4093 7.85608L33.0468 8.78882C33.9401 9.13438 34.726 9.8285 35.3915 10.9274L36.2472 10.4081ZM33.4075 7.85541C32.5802 7.53888 31.3169 7.40153 29.6738 7.40487V8.40487C31.297 8.40157 32.4032 8.54261 33.0485 8.78949L33.4075 7.85541ZM29.6738 7.40487L25.3125 7.41374V8.41374L29.6738 8.40487V7.40487ZM24.8125 7.91476V23.7741L25.8125 23.7721V7.91272L24.8125 7.91476ZM43.4092 26.186L42.9092 26.187V26.687L43.4092 26.686V26.186ZM43.4092 5.42724V4.92724L42.9092 4.92826V5.42826L43.4092 5.42724ZM55.0063 6.04087L54.8028 6.49804L54.8083 6.50038L55.0063 6.04087ZM57.2578 7.97624L56.8315 8.2384L56.8349 8.24375L57.2578 7.97624ZM55.1763 15.1172L54.9544 14.6696L53.8077 15.2397L55.0356 15.5973L55.1763 15.1172ZM58.0649 16.9946L57.666 17.2968L57.668 17.2995L58.0649 16.9946ZM58.4614 22.8561L58.0132 22.6354L58.0122 22.6375L58.4614 22.8561ZM54.6665 25.8233L54.7878 26.3081L54.7913 26.3072L54.6665 25.8233ZM46.1562 14.1443L45.6562 14.1453V14.6453L46.1562 14.6443V14.1443ZM53.2646 13.8891L53.1222 13.4102L53.1194 13.411L53.2646 13.8891ZM54.8364 12.8523L54.4355 12.5543L54.4317 12.5595L54.8364 12.8523ZM54.8789 9.22717L54.4549 9.49304L54.4571 9.49646L54.8789 9.22717ZM53.4629 8.15387L53.3092 8.63002L53.3158 8.63206L53.4629 8.15387ZM46.1562 7.87136V7.37136L45.6562 7.37238V7.87238L46.1562 7.87136ZM46.1562 23.7307L45.6562 23.7318V24.2318L46.1562 24.2307V23.7307ZM53.1938 23.6173L53.1057 23.1253L53.1033 23.1258L53.1938 23.6173ZM55.8276 21.8986L56.2663 22.1377L56.2681 22.1342L55.8276 21.8986ZM55.6436 18.1323L55.2317 18.4167L55.2339 18.4199L55.6436 18.1323ZM53.9868 16.9321L53.8268 17.4062L53.8344 17.4086L53.9868 16.9321ZM46.1562 16.594V16.094L45.6562 16.095V16.595L46.1562 16.594ZM43.9092 26.185V5.42622L42.9092 5.42826V26.187L43.9092 26.185ZM43.4092 5.92724L51.1973 5.91141V4.91141L43.4092 4.92724V5.92724ZM51.1973 5.91141C52.746 5.90826 53.9379 6.11439 54.8029 6.498L55.2098 5.58374C54.1679 5.12162 52.8204 4.90811 51.1973 4.91141V5.91141ZM54.8083 6.50038C55.6784 6.87395 56.3483 7.45105 56.8315 8.23838L57.6841 7.71409C57.0911 6.74775 56.2601 6.03461 55.2044 5.58136L54.8083 6.50038ZM56.8349 8.24375C57.3361 9.03777 57.5791 9.85669 57.5791 10.7085L58.5791 10.7065C58.5791 9.65136 58.2746 8.64945 57.6808 7.70872L56.8349 8.24375ZM57.5791 10.7085C57.5791 11.5 57.3658 12.2457 56.9309 12.9544L57.7829 13.4762C58.3109 12.6159 58.5791 11.6897 58.5791 10.7065L57.5791 10.7085ZM56.9309 12.9544C56.5069 13.6453 55.8579 14.2204 54.9544 14.6696L55.3981 15.5648C56.4393 15.0472 57.244 14.3543 57.7829 13.4762L56.9309 12.9544ZM55.0356 15.5973C56.2069 15.9384 57.0713 16.5107 57.666 17.2968L58.4639 16.6924C57.7181 15.7065 56.6567 15.0272 55.317 14.6371L55.0356 15.5973ZM57.668 17.2995C58.2753 18.0911 58.5845 19.0292 58.5845 20.1371L59.5845 20.1351C59.5845 18.8263 59.2139 17.6701 58.4619 16.6898L57.668 17.2995ZM58.5845 20.1371C58.5845 21.0355 58.3932 21.866 58.0132 22.6354L58.9096 23.0768C59.3604 22.1642 59.5845 21.1813 59.5845 20.1351L58.5845 20.1371ZM58.0122 22.6375C57.6333 23.4136 57.1745 23.9884 56.6463 24.3856L57.2463 25.1844C57.9264 24.6729 58.4777 23.9617 58.9107 23.0747L58.0122 22.6375ZM56.6463 24.3856C56.1058 24.792 55.4095 25.114 54.5417 25.3394L54.7913 26.3072C55.7549 26.0569 56.5784 25.6866 57.2463 25.1844L56.6463 24.3856ZM54.5452 25.3385C53.6912 25.5537 52.6209 25.6673 51.3247 25.6699V26.6699C52.6718 26.6672 53.8293 26.5497 54.7878 26.3081L54.5452 25.3385ZM51.3247 25.6699L43.4092 25.686V26.686L51.3247 26.6699V25.6699ZM46.1562 14.6443L50.645 14.6352V13.6352L46.1562 13.6443V14.6443ZM50.645 14.6352C51.8674 14.6327 52.805 14.5521 53.4099 14.3673L53.1194 13.411C52.667 13.5492 51.8582 13.6327 50.645 13.6352V14.6352ZM53.4071 14.3681C54.1868 14.1347 54.8138 13.735 55.2411 13.145L54.4317 12.5595C54.1605 12.9338 53.7396 13.2253 53.1222 13.4102L53.4071 14.3681ZM55.2374 13.1502C55.673 12.5646 55.8745 11.8489 55.8745 11.0376L54.8745 11.0397C54.8745 11.6822 54.7173 12.1756 54.4355 12.5543L55.2374 13.1502ZM55.8745 11.0376C55.8745 10.2652 55.6882 9.56588 55.3007 8.95787L54.4571 9.49646C54.7305 9.92552 54.8745 10.4339 54.8745 11.0397L55.8745 11.0376ZM55.3029 8.9613C54.9067 8.32823 54.3347 7.89722 53.6099 7.67568L53.3158 8.63206C53.8183 8.78564 54.1903 9.07015 54.4549 9.49303L55.3029 8.9613ZM53.6166 7.67777C52.9212 7.45453 51.7985 7.35989 50.3052 7.36293V8.36293C51.7949 8.3599 52.7773 8.45922 53.3092 8.62997L53.6166 7.67777ZM50.3052 7.36293L46.1562 7.37136V8.37136L50.3052 8.36293V7.36293ZM45.6562 7.87238V14.1453L46.6562 14.1433V7.87035L45.6562 7.87238ZM46.1562 24.2307L51.3247 24.2202V23.2202L46.1562 23.2307V24.2307ZM51.3247 24.2202C52.2116 24.2184 52.876 24.1849 53.2844 24.1089L53.1033 23.1258C52.7943 23.1833 52.2125 23.2184 51.3247 23.2202V24.2202ZM53.282 24.1093C53.96 23.9865 54.5524 23.7785 55.0439 23.4717L54.5156 22.6237C54.1576 22.8472 53.6927 23.019 53.1057 23.1253L53.282 24.1093ZM55.0439 23.4717C55.5515 23.1548 55.9571 22.7034 56.2663 22.1377L55.389 21.6595C55.1507 22.0955 54.8577 22.4102 54.5156 22.6237L55.0439 23.4717ZM56.2681 22.1342C56.5862 21.5413 56.7383 20.8724 56.7383 20.1409L55.7383 20.1429C55.7383 20.733 55.6166 21.2352 55.3871 21.6629L56.2681 22.1342ZM56.7383 20.1409C56.7383 19.277 56.5154 18.5042 56.0532 17.8448L55.2339 18.4199C55.5647 18.8917 55.7383 19.4586 55.7383 20.1429L56.7383 20.1409ZM56.0554 17.848C55.592 17.1759 54.9455 16.712 54.1392 16.4556L53.8344 17.4086C54.4441 17.6025 54.9021 17.9387 55.2317 18.4167L56.0554 17.848ZM54.1469 16.4581C53.3711 16.1976 52.2966 16.0815 50.9565 16.0843V17.0843C52.2597 17.0816 53.2054 17.1975 53.8268 17.4061L54.1469 16.4581ZM50.9565 16.0843L46.1562 16.094V17.094L50.9565 17.0843V16.0843ZM45.6562 16.595V23.7318L46.6562 23.7297V16.593L45.6562 16.595ZM67.8921 22.7803L67.3921 22.7813V23.2813L67.8921 23.2803V22.7803ZM67.8921 17.0879L68.3921 17.0869V16.5869L67.8921 16.5879V17.0879ZM62.2422 17.0994L61.7422 17.1004V17.6004L62.2422 17.5994V17.0994ZM62.2422 14.7205V14.2205L61.7422 14.2215V14.7215L62.2422 14.7205ZM67.8921 14.709V15.209L68.3921 15.208V14.708L67.8921 14.709ZM67.8921 9.05911V8.55911L67.3921 8.56012V9.06012L67.8921 9.05911ZM70.2993 9.05421L70.7993 9.0532V8.5532L70.2993 8.55421V9.05421ZM70.2993 14.7041L69.7993 14.7051V15.2051L70.2993 15.2041V14.7041ZM75.9492 14.6926L76.4492 14.6916V14.1916L75.9492 14.1926V14.6926ZM75.9492 17.0715V17.5715L76.4492 17.5705V17.0705L75.9492 17.0715ZM70.2993 17.083V16.583L69.7993 16.584V17.084L70.2993 17.083ZM70.2993 22.7754V23.2754L70.7993 23.2744V22.7744L70.2993 22.7754ZM68.3921 22.7793V17.0869L67.3921 17.0889V22.7813L68.3921 22.7793ZM67.8921 16.5879L62.2422 16.5994V17.5994L67.8921 17.5879V16.5879ZM62.7422 17.0984V14.7195L61.7422 14.7215V17.1004L62.7422 17.0984ZM62.2422 15.2205L67.8921 15.209V14.209L62.2422 14.2205V15.2205ZM68.3921 14.708V9.05809L67.3921 9.06012V14.71L68.3921 14.708ZM67.8921 9.55911L70.2993 9.55421V8.55421L67.8921 8.55911V9.55911ZM69.7993 9.05523V14.7051L70.7993 14.7031V9.0532L69.7993 9.05523ZM70.2993 15.2041L75.9492 15.1926V14.1926L70.2993 14.2041V15.2041ZM75.4492 14.6936V17.0726L76.4492 17.0705V14.6916L75.4492 14.6936ZM75.9492 16.5715L70.2993 16.583V17.583L75.9492 17.5715V16.5715ZM69.7993 17.084V22.7764L70.7993 22.7744V17.082L69.7993 17.084ZM70.2993 22.2754L67.8921 22.2803V23.2803L70.2993 23.2754V22.2754Z" fill="#767494"/>
</svg>
