<svg width="51" height="49" viewBox="0 0 51 49" fill="none" xmlns="http://www.w3.org/2000/svg">
<path d="M31.1436 1.98793V24.8763H34.5275V1.98755L31.1436 1.98793ZM20.4982 3.78026V10.6663H23.8818V3.78026H20.4982ZM15.0615 9.44167V32.3304H18.4455V9.44167H15.0615ZM25.8217 9.45086V16.3361H29.2053V9.45086H25.8217ZM20.4975 12.6768V15.9258H23.8818V12.6768H20.4982H20.4975ZM20.4975 17.924V24.8101H23.8818V17.9244H20.4982L20.4975 17.924ZM25.8217 18.3459V21.5944H29.2053V18.3459H25.8217ZM25.8217 23.6057V30.491H29.2053V23.6057H25.8217ZM32.067 34.2219V37.8755C31.4592 37.1186 30.4896 36.732 29.5377 36.732C27.6139 36.732 26.2018 38.3088 26.2018 40.4009C26.2018 42.4929 27.6166 44.0705 29.5377 44.0705C30.54 44.0705 31.5908 43.6203 32.1814 42.7674L32.2479 43.8783H33.9721V34.2223L32.067 34.2219ZM47.24 36.7148C45.3186 36.7148 44.4479 37.7484 44.4479 38.839C44.4471 39.8209 45.0717 40.722 46.8111 41.0926C47.7811 41.3177 48.3228 41.4946 48.3228 41.9926C48.3228 42.5726 47.7971 42.798 47.0416 42.798C45.9908 42.798 45.1205 42.3628 44.5455 42.0248L44.2342 43.3167C45.0918 43.825 46.0734 44.0973 47.0756 44.105C48.8975 44.105 50.0143 43.1885 50.0143 41.6952C50.0143 40.7611 49.2588 39.9086 47.3873 39.5223C46.6322 39.3455 46.1385 39.1357 46.1385 38.6694C46.1385 38.2506 46.5174 37.9934 47.2889 37.9934C48.0131 38.0069 48.721 38.207 49.3412 38.5737L49.6498 37.343C49.4232 37.2147 48.4064 36.7148 47.24 36.7148ZM4.4498 36.7263C3.44824 36.7247 2.39707 37.1757 1.80566 38.0286L1.73848 36.9226H0.0146484V47.012H1.92051V42.9244C2.52832 43.6812 3.49668 44.0674 4.44941 44.0674C6.37012 44.0686 7.7877 42.4891 7.7877 40.3963C7.7877 38.3034 6.37051 36.7263 4.4498 36.7263ZM12.2604 36.7305C10.3357 36.7293 8.92402 38.3076 8.92402 40.3993C8.92402 42.4914 10.3389 44.069 12.26 44.069C13.2611 44.069 14.3127 43.6184 14.9037 42.7659L14.9693 43.8753L16.6936 43.876V36.9234H14.9693L14.9037 38.0336C14.3127 37.1845 13.2607 36.7305 12.2604 36.7305ZM22.6736 36.7312C21.59 36.7312 20.5229 37.3261 20.0459 38.2116L19.9643 36.9234H18.2186V43.8726H20.1232V39.9943C20.124 39.0285 21.1096 38.2246 22.0123 38.2246C22.8818 38.2246 23.3588 38.6751 23.3588 40.0272V43.8776H25.2689V39.7413C25.2689 38.0194 24.5615 36.7312 22.6736 36.7312ZM38.4205 36.7343C36.4967 36.7335 35.0834 38.3111 35.0834 40.4032C35.0834 42.4952 36.499 44.072 38.4205 44.072C39.4217 44.0728 40.4729 43.6219 41.0643 42.7689L41.1299 43.8791H42.8588V36.9272H41.1299L41.0643 38.0374C40.4729 37.1883 39.4217 36.7343 38.4205 36.7343ZM3.85918 38.1132C4.9752 38.1132 5.87637 38.9653 5.87637 40.3978C5.87637 41.8303 4.9752 42.6836 3.8584 42.6836C2.7416 42.6836 1.83887 41.8303 1.83887 40.3982C1.83887 38.9661 2.74668 38.1132 3.85918 38.1132ZM12.8518 38.1132C13.9689 38.1185 14.8713 38.968 14.8713 40.3993C14.8713 41.8307 13.9689 42.6843 12.8518 42.6843C11.7346 42.6843 10.8322 41.8311 10.8322 40.399C10.8322 38.9661 11.7393 38.1132 12.8518 38.1132ZM30.1311 38.1189C31.2471 38.1189 32.1498 38.9722 32.1498 40.4043C32.1498 41.8372 31.2475 42.6905 30.1303 42.6905C29.0131 42.6889 28.1107 41.8368 28.1107 40.4047C28.1107 38.9726 29.0139 38.1193 30.1311 38.1193V38.1189ZM39.0123 38.1189C40.1295 38.1189 41.0318 38.9722 41.0318 40.4043C41.0318 41.8372 40.1291 42.6905 39.0123 42.6905C37.8955 42.6905 36.9928 41.8368 36.9928 40.4047C36.9928 38.9726 37.8955 38.1193 39.0123 38.1193V38.1189Z" fill="#767494"/>
</svg>
