<svg width="77" height="71" viewBox="0 0 77 71" fill="none" xmlns="http://www.w3.org/2000/svg">
<path d="M29.9682 27.7125V24.2475C30.3545 24.2125 30.7029 24.2125 31.0924 24.2125C41.4474 23.9267 48.2335 32.4288 48.2335 32.4288C48.2335 32.4288 40.9027 41.7533 33.0335 41.7533C31.9822 41.7533 30.9752 41.6075 29.9682 41.2867V30.7488C33.9994 31.2154 34.8132 32.8196 37.2199 36.5354L42.6095 32.3558C42.6095 32.3558 38.6544 27.6075 32.0614 27.6075C31.3647 27.6075 30.667 27.6425 29.9682 27.7125ZM29.9682 16.2121V21.3921L31.0924 21.3192C45.4817 20.8525 54.8677 32.1779 54.8677 32.1779C54.8677 32.1779 44.0852 44.2879 32.8752 44.2879C31.8996 44.2923 30.9259 44.2083 29.9682 44.0371V47.2542C30.744 47.3242 31.5579 47.3971 32.3717 47.3971C42.8059 47.3971 50.3679 42.4679 57.6987 36.6813C58.902 37.5738 63.8642 39.7525 64.9123 40.68C57.9678 46.0379 41.7577 50.3633 32.5649 50.3633C31.7094 50.3679 30.8545 50.3191 30.0062 50.2175V54.7908H69.6814V16.2121H29.9682ZM29.9682 41.3246V44.075C20.3099 42.4679 17.634 33.2163 17.634 33.2163C17.634 33.2163 22.289 28.5 29.9682 27.7125V30.7167H29.927C25.8959 30.25 22.7134 33.75 22.7134 33.75C22.7134 33.75 24.5405 39.6096 29.9682 41.3246ZM12.8207 32.8225C12.8207 32.8225 18.5239 25.035 29.9682 24.2475L29.965 21.4271C17.2857 22.3546 6.34802 32.2158 6.34802 32.2158C6.34802 32.2158 12.5547 48.7533 29.9682 50.2525V47.2542C17.1685 45.79 12.8207 32.8225 12.8207 32.8225Z" fill="#767494"/>
</svg>
