<svg width="78" height="75" viewBox="0 0 78 75" fill="none" xmlns="http://www.w3.org/2000/svg">
<path d="M22.6984 33.7523V45.8625H18.7377V30.6398H26.9093C30.3816 30.6398 31.5582 33.0328 31.5582 35.1937V45.8625H27.6096V35.2172C27.6096 34.3008 27.1331 33.7523 25.9685 33.7523H22.6984ZM49.6195 33.5695C48.2528 33.5695 47.2133 34.2398 46.7753 35.168C46.5233 35.6823 46.3949 36.2458 46.4 36.8156H52.4902C52.4156 35.168 51.6384 33.5695 49.6195 33.5695ZM46.3976 39.4406C46.3976 41.407 47.6512 42.8719 49.9059 42.8719C51.648 42.8719 52.5118 42.3961 53.5273 41.407L55.972 43.6898C54.4176 45.1922 52.7645 46.1062 49.8698 46.1062C46.0847 46.1062 42.4633 44.093 42.4633 38.2336C42.4633 33.2156 45.6227 30.3844 49.7832 30.3844C54.0061 30.3844 56.4388 33.7055 56.4388 38.0508V39.4312H46.4L46.3976 39.4406ZM39.1162 45.8367C35.8943 45.8367 34.5299 43.6523 34.5299 41.4914V26.4891H38.4786V30.6398H41.4479V33.7523H38.4786V41.2477C38.4786 42.1383 38.9045 42.6281 39.8453 42.6281H41.4503V45.8391L39.1162 45.8367ZM15.2174 28.5398H11.2326V24.8414H15.2174V28.5398ZM15.2294 46.0195C12.2457 45.7383 11.2326 43.9805 11.2326 41.9414V30.6375H15.2174V46.0312L15.2294 46.0195ZM62.7288 45.6914C59.745 45.4102 58.744 43.6523 58.744 41.6273V24.3305H62.7288V45.7055V45.6914ZM76.6754 26.8312C73.066 9.65624 38.8395 8.56874 16.7959 21.6422V23.0953C38.8155 12.0609 70.0727 12.1336 72.9168 27.9305C73.8577 33.1664 70.8354 38.6109 65.4358 41.7492V45.8508C71.9399 43.5305 78.6076 36.0117 76.6778 26.8312H76.6754ZM36.5849 56.8594C21.3702 58.2258 5.50334 56.0648 3.28478 44.4937C2.20678 38.7797 4.88975 32.7258 8.41009 28.9664V26.9648C2.04316 32.4094 -1.41463 39.307 0.577749 47.4492C3.12116 57.8977 16.7333 63.818 37.4992 61.8539C45.7214 61.0734 56.487 58.4976 63.956 54.4922V48.8156C57.1752 52.7578 45.9332 56.018 36.5849 56.8594ZM67.3392 25.4648C67.3392 25.282 67.214 25.2211 66.9638 25.2211H66.7135V25.7578H66.9638C67.214 25.7578 67.3392 25.6851 67.3392 25.5023V25.4648ZM67.729 26.7937H67.4282C67.4153 26.7935 67.4026 26.7899 67.3916 26.7833C67.3806 26.7767 67.3717 26.7674 67.3656 26.7562L66.9638 26.0859C66.9465 26.0711 66.9243 26.0628 66.9012 26.0625H66.7256V26.7211C66.7256 26.7586 66.6871 26.7937 66.651 26.7937H66.3887C66.3502 26.7937 66.3141 26.7562 66.3141 26.7211V25.0477C66.3141 24.9633 66.3646 24.9141 66.4392 24.9C66.6028 24.8906 66.7657 24.8867 66.9277 24.8883C67.4162 24.8883 67.7169 25.0219 67.7169 25.4742V25.4976C67.7169 25.7789 67.5653 25.9242 67.3536 25.9992L67.7675 26.6836C67.7675 26.6953 67.7795 26.7211 67.7795 26.7328C67.7915 26.7562 67.7675 26.7937 67.729 26.7937ZM67.0263 24.5719C66.6773 24.5719 66.3425 24.7069 66.0956 24.9474C65.8488 25.1878 65.7101 25.5139 65.7101 25.8539C65.7222 26.5617 66.3117 27.1359 67.0384 27.1359C67.3837 27.1341 67.7143 26.9997 67.9585 26.7618C68.2027 26.524 68.3407 26.202 68.3426 25.8656C68.3438 25.5241 68.206 25.1961 67.9592 24.9536C67.7124 24.711 67.3769 24.5737 67.0263 24.5719ZM67.0263 27.4055C66.6061 27.4055 66.2031 27.2429 65.9059 26.9534C65.6088 26.664 65.4418 26.2714 65.4418 25.8621C65.4418 25.4528 65.6088 25.0602 65.9059 24.7708C66.2031 24.4813 66.6061 24.3187 67.0263 24.3187C67.8902 24.3187 68.6169 25.0148 68.6169 25.868C68.6169 26.7211 67.8902 27.4055 67.0263 27.4055Z" fill="#767494"/>
</svg>
