<svg width="50" height="49" viewBox="0 0 50 49" fill="none" xmlns="http://www.w3.org/2000/svg">
<path d="M32.0627 27.5543C30.462 25.3657 28.0161 24.453 24.5208 23.716L21.2705 22.9504L18.8184 21.8989C17.5301 20.9883 16.4297 18.5628 16.742 16.4252C16.9814 14.8277 17.8422 13.3894 19.1369 12.4235C20.4317 11.4576 22.0556 11.0423 23.6551 11.268C24.4454 11.3771 25.2063 11.6417 25.8938 12.0465C26.5813 12.4512 27.1819 12.9881 27.6609 13.6261L31.3542 18.4771C33.4633 21.1925 35.8357 22.003 38.4164 20.7188L39.7169 20.1676C39.8169 20.1229 39.9298 20.1163 40.0343 20.149C40.1388 20.1817 40.2278 20.2515 40.2845 20.3452L40.5438 20.7331C40.6155 20.8567 40.7282 20.9513 40.8623 21.0006C40.9749 21.0428 41.0968 21.0541 41.2153 21.0332C41.3338 21.0124 41.4445 20.9602 41.536 20.8822L44.5312 18.0565C45.0559 17.6073 44.9027 17.1949 44.9027 17.1949L44.18 15.5493C44.18 15.5493 43.9819 15.1553 43.3 15.2451L39.282 15.6147C39.1879 15.6278 39.0977 15.6609 39.0173 15.7117C38.937 15.7625 38.8685 15.8299 38.8163 15.9093C38.7641 15.9888 38.7295 16.0784 38.7147 16.1723C38.7 16.2662 38.7055 16.3622 38.7308 16.4538L38.8757 16.9172C38.9043 17.0132 38.9043 17.1214 38.8655 17.2194C38.8432 17.2771 38.8092 17.3295 38.7656 17.3734C38.722 17.4174 38.6699 17.4518 38.6124 17.4746L37.4772 17.9544C36.289 18.6506 34.9374 18.2055 34.035 17.103L33.0039 15.7351L30.068 11.8355C29.352 10.8848 28.4551 10.085 27.4288 9.48233C26.4025 8.87964 25.2671 8.48593 24.088 8.32387C19.1145 7.62153 14.5003 11.0658 13.7775 16.0067C13.4121 18.4975 14.1593 20.8556 15.5232 22.7482C16.5134 24.1243 18.3264 24.9124 19.3084 25.1574L21.885 25.8924L24.3513 26.4579C24.6902 26.5396 25.6457 26.7744 26.2092 26.9786C26.7319 27.1664 27.9345 27.6115 28.9124 28.4098C30.0802 29.598 30.6989 31.2947 30.4355 33.0729C30.2721 34.162 29.7914 35.1788 29.0534 35.9962C28.3153 36.8136 27.3528 37.3954 26.286 37.6688C25.2192 37.9422 24.0954 37.8951 23.0552 37.5334C22.015 37.1718 21.1045 36.5115 20.4375 35.6352L16.9135 30.9557C16.1641 29.965 15.0526 29.3116 13.8224 29.1387C13.2108 29.0513 12.5879 29.0855 11.9896 29.2393C11.3912 29.3931 10.829 29.6635 10.3353 30.035L2.91995 35.5679C1.01212 32.1913 0.0112044 28.3783 0.0146573 24.5C0.0146573 11.8376 10.4945 1.56799 23.4224 1.56799C33.0488 1.56799 41.3094 7.26016 44.9068 15.3901L46.093 14.8388L46.8954 12.6502L47.7345 12.9442L47.0138 14.9042L49.0147 15.5922L48.7125 16.4129L46.4769 15.633L45.2457 16.1986C46.2666 18.7752 46.8342 21.5722 46.8342 24.5C46.8342 37.1644 36.3502 47.432 23.4224 47.432C19.7558 47.4439 16.1371 46.5991 12.8547 44.9651C9.57238 43.331 6.71712 40.9527 4.51653 38.0199L12.1136 32.3277C12.4836 32.0755 12.9364 31.9751 13.3783 32.0473C13.8202 32.1195 14.2175 32.3588 14.488 32.7157L18.2161 37.728C19.5838 39.4013 21.5329 40.4966 23.6735 40.7945C28.3734 41.452 32.7365 38.1955 33.4184 33.5201C33.7272 31.432 33.2436 29.3039 32.0627 27.5543Z" fill="#767494"/>
</svg>
