<svg width="51" height="49" viewBox="0 0 51 49" fill="none" xmlns="http://www.w3.org/2000/svg">
<path d="M37.4376 29.8083V19.0365H39.9834V27.6197H44.4417V29.8043H37.4376V29.8083ZM17.0542 23.0953L23.2626 18.4158L25.0146 19.8185L19.1251 24.1876L20.398 25.2799L26.2876 20.7556L28.0396 22.1603C26.0858 23.68 24.1226 25.1882 22.1501 26.6846L23.4209 27.7789L29.3167 23.0933L29.3146 19.0385H31.8626V27.6217H36.4792V29.8063H29.4751V25.7495L23.2646 30.429L17.0542 25.7495C16.7542 27.2379 15.6938 28.5262 14.3209 29.2081C13.7247 29.5055 13.0792 29.6963 12.4146 29.7716C12.0334 29.8165 11.6501 29.8063 11.2667 29.8063H7.33965V19.0385H11.8688C13.0535 19.0497 14.2002 19.4501 15.1251 20.1758C16.0709 20.9108 16.7459 21.9561 17.0563 23.0953M9.73131 21.2231V27.7769L11.7167 27.7748C12.134 27.7611 12.5433 27.6585 12.916 27.4741C13.2887 27.2897 13.616 27.0279 13.8751 26.707C14.3124 26.1692 14.5811 25.5184 14.6484 24.8338C14.7157 24.1492 14.5788 23.4602 14.2542 22.8503C14.0488 22.4626 13.761 22.1224 13.4103 21.8527C13.0596 21.583 12.654 21.3899 12.2209 21.2864C11.8751 21.2048 11.5167 21.2252 11.1646 21.2211L9.73131 21.2231ZM24.6396 0H25.3417C29.2684 0.0502492 33.1271 1.01085 36.6021 2.80321C39.9935 4.55217 42.9332 7.03584 45.198 10.0654C48.2573 14.1494 49.941 19.0667 50.0146 24.1325V24.8675C49.9369 30.9678 47.5319 36.8186 43.273 41.2682C40.9776 43.6703 38.2107 45.5933 35.1384 46.922C32.0661 48.2506 28.7517 48.9574 25.3938 49H24.6417C21.6866 48.956 18.7629 48.3989 16.0063 47.3544C12.6471 46.0758 9.60968 44.1007 7.10215 41.5643C4.41699 38.8582 2.40261 35.5834 1.21465 31.9929C0.457885 29.6896 0.0534954 27.289 0.0146484 24.8695L0.0146484 24.1325C0.0934435 19.48 1.53386 14.9476 4.16465 11.074C6.61926 7.44276 10.0026 4.50581 13.9771 2.55617C17.2918 0.934033 20.9352 0.0605701 24.6396 0ZM24.3209 2.51125C19.4344 2.64726 14.7285 4.3507 10.9251 7.36021C7.81557 9.81589 5.42903 13.0384 4.01048 16.6968C1.9514 22.0658 2.09552 28.008 4.41257 33.2751C6.01125 36.8747 8.56157 39.9907 11.8001 42.3013C14.7426 44.4039 18.166 45.7681 21.7709 46.2744C24.8042 46.7011 27.9271 46.5275 30.8876 45.7435C34.9396 44.6708 38.6029 42.5048 41.4605 39.492C44.3201 36.4838 46.2591 32.7483 47.0563 28.712C47.6794 25.5452 47.5927 22.2835 46.8021 19.1529C45.8825 15.5437 44.0435 12.2222 41.4572 9.49915C38.871 6.77612 35.6222 4.74062 32.0146 3.58313C29.5329 2.79123 26.9295 2.42853 24.3209 2.51125Z" fill="#767494"/>
</svg>
