<svg width="123" height="109" viewBox="0 0 123 109" fill="none" xmlns="http://www.w3.org/2000/svg">
<path d="M61.5 53.9754L51.019 44.2526C43.6056 37.3755 31.0795 42.2369 31.0795 51.9597V64.6468H91.9205V25.7556L61.5 53.9754Z" fill="#070F21"/>
<path d="M61.5 11.1714L71.981 20.8942C79.3944 27.7713 91.9205 22.9099 91.9205 13.1871V0.5H31.0795V39.3912L61.5 11.1714Z" fill="#070F21"/>
<path d="M8.49066 101.647V86.2467H14.5407C15.6113 86.2467 16.5133 86.4154 17.2467 86.7527C17.98 87.0901 18.53 87.5594 18.8967 88.1607C19.2633 88.7474 19.4467 89.4294 19.4467 90.2067C19.4467 90.9841 19.278 91.6367 18.9407 92.1647C18.6033 92.6927 18.156 93.0961 17.5987 93.3747C17.0413 93.6534 16.4473 93.8221 15.8167 93.8807L16.1467 93.6387C16.836 93.6534 17.452 93.8367 17.9947 94.1887C18.552 94.5407 18.992 95.0027 19.3147 95.5747C19.6373 96.1321 19.7987 96.7554 19.7987 97.4447C19.7987 98.2514 19.6007 98.9774 19.2047 99.6227C18.8233 100.253 18.2587 100.752 17.5107 101.119C16.7627 101.471 15.846 101.647 14.7607 101.647H8.49066ZM11.1307 99.4907H14.3647C15.23 99.4907 15.9047 99.2854 16.3887 98.8747C16.8727 98.4641 17.1147 97.8921 17.1147 97.1587C17.1147 96.4254 16.8653 95.8461 16.3667 95.4207C15.868 94.9807 15.186 94.7607 14.3207 94.7607H11.1307V99.4907ZM11.1307 92.7587H14.1667C15.0027 92.7587 15.6407 92.5681 16.0807 92.1867C16.5353 91.7907 16.7627 91.2481 16.7627 90.5587C16.7627 89.8841 16.5353 89.3561 16.0807 88.9747C15.6407 88.5787 14.988 88.3807 14.1227 88.3807H11.1307V92.7587ZM22.2621 101.647V86.2467H24.9021V101.647H22.2621ZM27.9555 101.647V86.2467H30.5955V99.5787H37.4815V101.647H27.9555ZM39.9868 101.647V86.2467H42.6268V99.5787H49.5128V101.647H39.9868ZM52.018 101.647V86.2467H54.658V101.647H52.018ZM64.8614 101.911C63.3507 101.911 62.016 101.581 60.8574 100.921C59.7134 100.246 58.8187 99.3147 58.1734 98.1267C57.528 96.9241 57.2054 95.5307 57.2054 93.9467C57.2054 92.3774 57.528 90.9987 58.1734 89.8107C58.8187 88.6081 59.7134 87.6694 60.8574 86.9947C62.016 86.3201 63.3507 85.9827 64.8614 85.9827C66.3867 85.9827 67.7214 86.3201 68.8654 86.9947C70.024 87.6694 70.926 88.6081 71.5714 89.8107C72.2167 90.9987 72.5394 92.3774 72.5394 93.9467C72.5394 95.5307 72.2167 96.9241 71.5714 98.1267C70.926 99.3147 70.024 100.246 68.8654 100.921C67.7214 101.581 66.3867 101.911 64.8614 101.911ZM64.8614 99.5347C65.8587 99.5347 66.7314 99.3147 67.4794 98.8747C68.2274 98.4201 68.8067 97.7747 69.2174 96.9387C69.628 96.1027 69.8334 95.1054 69.8334 93.9467C69.8334 92.7881 69.628 91.7907 69.2174 90.9547C68.8067 90.1187 68.2274 89.4807 67.4794 89.0407C66.7314 88.5861 65.8587 88.3587 64.8614 88.3587C63.864 88.3587 62.9914 88.5861 62.2434 89.0407C61.4954 89.4807 60.916 90.1187 60.5054 90.9547C60.0947 91.7907 59.8894 92.7881 59.8894 93.9467C59.8894 95.1054 60.0947 96.1027 60.5054 96.9387C60.916 97.7747 61.4954 98.4201 62.2434 98.8747C62.9914 99.3147 63.864 99.5347 64.8614 99.5347ZM75.0493 101.647V86.2467H77.6893L85.1033 97.3787V86.2467H87.7433V101.647H85.1033L77.6893 90.5367V101.647H75.0493ZM90.9513 96.3447V94.1447H100.059V96.3447H90.9513ZM102.488 101.647L107.306 93.8587L102.444 86.2467H105.48L109 91.7687L112.234 86.2467H115.204L110.43 93.9687L115.314 101.647H112.278L108.736 96.0587L105.48 101.647H102.488Z" fill="black"/>
</svg>
